<?xml version="1.0" encoding="utf-8" standalone="no"?>
<!DOCTYPE svg PUBLIC "-//W3C//DTD SVG 1.1//EN"
  "http://www.w3.org/Graphics/SVG/1.1/DTD/svg11.dtd">
<!-- Created with matplotlib (https://matplotlib.org/) -->
<svg height="252pt" version="1.1" viewBox="0 0 648 252" width="648pt" xmlns="http://www.w3.org/2000/svg" xmlns:xlink="http://www.w3.org/1999/xlink">
 <defs>
  <style type="text/css">
*{stroke-linecap:butt;stroke-linejoin:round;}
  </style>
 </defs>
 <g id="figure_1">
  <g id="patch_1">
   <path d="M 0 252 
L 648 252 
L 648 0 
L 0 0 
z
" style="fill:#ffffff;"/>
  </g>
  <g id="axes_1">
   <g id="patch_2">
    <path d="M 55.519811 212.56 
L 212.4525 212.56 
L 212.4525 25.8 
L 55.519811 25.8 
z
" style="fill:#ffffff;"/>
   </g>
   <g id="matplotlib.axis_1">
    <g id="xtick_1">
     <g id="line2d_1">
      <defs>
       <path d="M 0 0 
L 0 3.5 
" id="m03efcaef3c" style="stroke:#000000;stroke-width:0.8;"/>
      </defs>
      <g>
       <use style="stroke:#000000;stroke-width:0.8;" x="62.203065" xlink:href="#m03efcaef3c" y="212.56"/>
      </g>
     </g>
     <g id="text_1">
      <!-- 0 -->
      <defs>
       <path d="M 31.78125 3.421875 
Q 39.265625 3.421875 42.96875 11.625 
Q 46.6875 19.828125 46.6875 36.375 
Q 46.6875 52.984375 42.96875 61.1875 
Q 39.265625 69.390625 31.78125 69.390625 
Q 24.3125 69.390625 20.59375 61.1875 
Q 16.890625 52.984375 16.890625 36.375 
Q 16.890625 19.828125 20.59375 11.625 
Q 24.3125 3.421875 31.78125 3.421875 
z
M 31.78125 -1.421875 
Q 19.921875 -1.421875 13.25 8.53125 
Q 6.59375 18.5 6.59375 36.375 
Q 6.59375 54.296875 13.25 64.25 
Q 19.921875 74.21875 31.78125 74.21875 
Q 43.703125 74.21875 50.34375 64.25 
Q 56.984375 54.296875 56.984375 36.375 
Q 56.984375 18.5 50.34375 8.53125 
Q 43.703125 -1.421875 31.78125 -1.421875 
z
" id="DejaVuSerif-48"/>
      </defs>
      <g transform="translate(59.33994 226.398594)scale(0.09 -0.09)">
       <use xlink:href="#DejaVuSerif-48"/>
      </g>
     </g>
    </g>
    <g id="xtick_2">
     <g id="line2d_2">
      <g>
       <use style="stroke:#000000;stroke-width:0.8;" x="107.208137" xlink:href="#m03efcaef3c" y="212.56"/>
      </g>
     </g>
     <g id="text_2">
      <!-- 100 -->
      <defs>
       <path d="M 14.203125 0 
L 14.203125 5.171875 
L 26.90625 5.171875 
L 26.90625 65.828125 
L 12.203125 56.296875 
L 12.203125 62.703125 
L 29.984375 74.21875 
L 36.71875 74.21875 
L 36.71875 5.171875 
L 49.421875 5.171875 
L 49.421875 0 
z
" id="DejaVuSerif-49"/>
      </defs>
      <g transform="translate(98.618762 226.398594)scale(0.09 -0.09)">
       <use xlink:href="#DejaVuSerif-49"/>
       <use x="63.623047" xlink:href="#DejaVuSerif-48"/>
       <use x="127.246094" xlink:href="#DejaVuSerif-48"/>
      </g>
     </g>
    </g>
    <g id="xtick_3">
     <g id="line2d_3">
      <g>
       <use style="stroke:#000000;stroke-width:0.8;" x="152.21321" xlink:href="#m03efcaef3c" y="212.56"/>
      </g>
     </g>
     <g id="text_3">
      <!-- 200 -->
      <defs>
       <path d="M 12.796875 55.515625 
L 7.328125 55.515625 
L 7.328125 68.5 
Q 12.546875 71.296875 17.84375 72.75 
Q 23.140625 74.21875 28.21875 74.21875 
Q 39.59375 74.21875 46.1875 68.703125 
Q 52.78125 63.1875 52.78125 53.71875 
Q 52.78125 43.015625 37.84375 28.125 
Q 36.671875 27 36.078125 26.421875 
L 17.671875 8.015625 
L 48.09375 8.015625 
L 48.09375 17 
L 53.8125 17 
L 53.8125 0 
L 6.78125 0 
L 6.78125 5.328125 
L 28.90625 27.390625 
Q 36.234375 34.71875 39.359375 40.84375 
Q 42.484375 46.96875 42.484375 53.71875 
Q 42.484375 61.078125 38.640625 65.234375 
Q 34.8125 69.390625 28.078125 69.390625 
Q 21.09375 69.390625 17.28125 65.921875 
Q 13.484375 62.453125 12.796875 55.515625 
z
" id="DejaVuSerif-50"/>
      </defs>
      <g transform="translate(143.623835 226.398594)scale(0.09 -0.09)">
       <use xlink:href="#DejaVuSerif-50"/>
       <use x="63.623047" xlink:href="#DejaVuSerif-48"/>
       <use x="127.246094" xlink:href="#DejaVuSerif-48"/>
      </g>
     </g>
    </g>
    <g id="xtick_4">
     <g id="line2d_4">
      <g>
       <use style="stroke:#000000;stroke-width:0.8;" x="197.218283" xlink:href="#m03efcaef3c" y="212.56"/>
      </g>
     </g>
     <g id="text_4">
      <!-- 300 -->
      <defs>
       <path d="M 9.71875 69.828125 
Q 15.4375 71.96875 20.671875 73.09375 
Q 25.921875 74.21875 30.515625 74.21875 
Q 41.21875 74.21875 47.21875 69.59375 
Q 53.21875 64.984375 53.21875 56.78125 
Q 53.21875 50.203125 49.0625 45.78125 
Q 44.921875 41.359375 37.3125 39.796875 
Q 46.296875 38.53125 51.25 33.28125 
Q 56.203125 28.03125 56.203125 19.671875 
Q 56.203125 9.46875 49.34375 4.015625 
Q 42.484375 -1.421875 29.59375 -1.421875 
Q 23.875 -1.421875 18.421875 -0.1875 
Q 12.984375 1.03125 7.625 3.515625 
L 7.625 17.671875 
L 13.09375 17.671875 
Q 13.578125 10.640625 17.828125 7.03125 
Q 22.078125 3.421875 29.78125 3.421875 
Q 37.25 3.421875 41.578125 7.734375 
Q 45.90625 12.0625 45.90625 19.578125 
Q 45.90625 28.171875 41.453125 32.59375 
Q 37.015625 37.015625 28.421875 37.015625 
L 23.78125 37.015625 
L 23.78125 42 
L 26.21875 42 
Q 34.765625 42 39.03125 45.53125 
Q 43.3125 49.078125 43.3125 56.203125 
Q 43.3125 62.59375 39.796875 65.984375 
Q 36.28125 69.390625 29.6875 69.390625 
Q 23.09375 69.390625 19.453125 66.265625 
Q 15.828125 63.140625 15.1875 56.984375 
L 9.71875 56.984375 
z
" id="DejaVuSerif-51"/>
      </defs>
      <g transform="translate(188.628908 226.398594)scale(0.09 -0.09)">
       <use xlink:href="#DejaVuSerif-51"/>
       <use x="63.623047" xlink:href="#DejaVuSerif-48"/>
       <use x="127.246094" xlink:href="#DejaVuSerif-48"/>
      </g>
     </g>
    </g>
    <g id="text_5">
     <!-- Iterations -->
     <defs>
      <path d="M 24.703125 5.171875 
L 33.984375 5.171875 
L 33.984375 0 
L 5.515625 0 
L 5.515625 5.171875 
L 14.796875 5.171875 
L 14.796875 67.671875 
L 5.515625 67.671875 
L 5.515625 72.90625 
L 33.984375 72.90625 
L 33.984375 67.671875 
L 24.703125 67.671875 
z
" id="DejaVuSerif-73"/>
      <path d="M 10.796875 46.6875 
L 2.875 46.6875 
L 2.875 51.90625 
L 10.796875 51.90625 
L 10.796875 68.015625 
L 19.828125 68.015625 
L 19.828125 51.90625 
L 36.71875 51.90625 
L 36.71875 46.6875 
L 19.828125 46.6875 
L 19.828125 13.71875 
Q 19.828125 7.125 21.09375 5.265625 
Q 22.359375 3.421875 25.78125 3.421875 
Q 29.296875 3.421875 30.90625 5.484375 
Q 32.515625 7.5625 32.625 12.203125 
L 39.40625 12.203125 
Q 39.015625 5.125 35.546875 1.84375 
Q 32.078125 -1.421875 25 -1.421875 
Q 17.234375 -1.421875 14.015625 2.015625 
Q 10.796875 5.46875 10.796875 13.71875 
z
" id="DejaVuSerif-116"/>
      <path d="M 54.203125 25 
L 15.484375 25 
L 15.484375 24.609375 
Q 15.484375 14.109375 19.4375 8.765625 
Q 23.390625 3.421875 31.109375 3.421875 
Q 37.015625 3.421875 40.796875 6.515625 
Q 44.578125 9.625 46.09375 15.71875 
L 53.328125 15.71875 
Q 51.171875 7.171875 45.375 2.875 
Q 39.59375 -1.421875 30.171875 -1.421875 
Q 18.796875 -1.421875 11.890625 6.078125 
Q 4.984375 13.578125 4.984375 25.984375 
Q 4.984375 38.28125 11.765625 45.796875 
Q 18.5625 53.328125 29.59375 53.328125 
Q 41.359375 53.328125 47.65625 46.0625 
Q 53.953125 38.8125 54.203125 25 
z
M 43.609375 30.171875 
Q 43.3125 39.265625 39.765625 43.875 
Q 36.234375 48.484375 29.59375 48.484375 
Q 23.390625 48.484375 19.828125 43.84375 
Q 16.265625 39.203125 15.484375 30.171875 
z
" id="DejaVuSerif-101"/>
      <path d="M 47.796875 52 
L 47.796875 39.015625 
L 42.625 39.015625 
Q 42.390625 42.875 40.484375 44.78125 
Q 38.578125 46.6875 34.90625 46.6875 
Q 28.265625 46.6875 24.71875 42.09375 
Q 21.1875 37.5 21.1875 28.90625 
L 21.1875 5.171875 
L 31.59375 5.171875 
L 31.59375 0 
L 4.109375 0 
L 4.109375 5.171875 
L 12.203125 5.171875 
L 12.203125 46.78125 
L 3.609375 46.78125 
L 3.609375 51.90625 
L 21.1875 51.90625 
L 21.1875 42.671875 
Q 23.828125 48.09375 27.96875 50.703125 
Q 32.125 53.328125 38.09375 53.328125 
Q 40.28125 53.328125 42.703125 52.984375 
Q 45.125 52.640625 47.796875 52 
z
" id="DejaVuSerif-114"/>
      <path d="M 39.796875 16.3125 
L 39.796875 27.296875 
L 28.21875 27.296875 
Q 21.53125 27.296875 18.25 24.40625 
Q 14.984375 21.53125 14.984375 15.578125 
Q 14.984375 10.15625 18.296875 6.984375 
Q 21.625 3.8125 27.296875 3.8125 
Q 32.90625 3.8125 36.34375 7.28125 
Q 39.796875 10.75 39.796875 16.3125 
z
M 48.78125 32.421875 
L 48.78125 5.171875 
L 56.78125 5.171875 
L 56.78125 0 
L 39.796875 0 
L 39.796875 5.609375 
Q 36.8125 2 32.90625 0.28125 
Q 29 -1.421875 23.78125 -1.421875 
Q 15.140625 -1.421875 10.0625 3.171875 
Q 4.984375 7.765625 4.984375 15.578125 
Q 4.984375 23.640625 10.796875 28.078125 
Q 16.609375 32.515625 27.203125 32.515625 
L 39.796875 32.515625 
L 39.796875 36.078125 
Q 39.796875 42 36.203125 45.234375 
Q 32.625 48.484375 26.125 48.484375 
Q 20.75 48.484375 17.578125 46.046875 
Q 14.40625 43.609375 13.625 38.8125 
L 8.984375 38.8125 
L 8.984375 49.3125 
Q 13.671875 51.3125 18.09375 52.3125 
Q 22.515625 53.328125 26.703125 53.328125 
Q 37.5 53.328125 43.140625 47.96875 
Q 48.78125 42.625 48.78125 32.421875 
z
" id="DejaVuSerif-97"/>
      <path d="M 9.71875 68.015625 
Q 9.71875 70.265625 11.34375 71.921875 
Q 12.984375 73.578125 15.28125 73.578125 
Q 17.53125 73.578125 19.15625 71.921875 
Q 20.796875 70.265625 20.796875 68.015625 
Q 20.796875 65.71875 19.1875 64.109375 
Q 17.578125 62.5 15.28125 62.5 
Q 12.984375 62.5 11.34375 64.109375 
Q 9.71875 65.71875 9.71875 68.015625 
z
M 21.1875 5.171875 
L 29.6875 5.171875 
L 29.6875 0 
L 3.609375 0 
L 3.609375 5.171875 
L 12.203125 5.171875 
L 12.203125 46.6875 
L 3.609375 46.6875 
L 3.609375 51.90625 
L 21.1875 51.90625 
z
" id="DejaVuSerif-105"/>
      <path d="M 30.078125 3.421875 
Q 37.3125 3.421875 40.984375 9.125 
Q 44.671875 14.84375 44.671875 25.984375 
Q 44.671875 37.109375 40.984375 42.796875 
Q 37.3125 48.484375 30.078125 48.484375 
Q 22.859375 48.484375 19.171875 42.796875 
Q 15.484375 37.109375 15.484375 25.984375 
Q 15.484375 14.84375 19.1875 9.125 
Q 22.90625 3.421875 30.078125 3.421875 
z
M 30.078125 -1.421875 
Q 18.75 -1.421875 11.859375 6.078125 
Q 4.984375 13.578125 4.984375 25.984375 
Q 4.984375 38.375 11.84375 45.84375 
Q 18.703125 53.328125 30.078125 53.328125 
Q 41.453125 53.328125 48.3125 45.84375 
Q 55.171875 38.375 55.171875 25.984375 
Q 55.171875 13.578125 48.3125 6.078125 
Q 41.453125 -1.421875 30.078125 -1.421875 
z
" id="DejaVuSerif-111"/>
      <path d="M 4.109375 0 
L 4.109375 5.171875 
L 12.203125 5.171875 
L 12.203125 46.6875 
L 3.609375 46.6875 
L 3.609375 51.90625 
L 21.1875 51.90625 
L 21.1875 42.671875 
Q 23.6875 47.953125 27.65625 50.640625 
Q 31.640625 53.328125 36.921875 53.328125 
Q 45.515625 53.328125 49.5625 48.390625 
Q 53.609375 43.453125 53.609375 33.015625 
L 53.609375 5.171875 
L 61.625 5.171875 
L 61.625 0 
L 36.8125 0 
L 36.8125 5.171875 
L 44.578125 5.171875 
L 44.578125 30.171875 
Q 44.578125 39.703125 42.234375 43.234375 
Q 39.890625 46.78125 33.984375 46.78125 
Q 27.734375 46.78125 24.453125 42.203125 
Q 21.1875 37.640625 21.1875 28.90625 
L 21.1875 5.171875 
L 29 5.171875 
L 29 0 
z
" id="DejaVuSerif-110"/>
      <path d="M 5.609375 2.875 
L 5.609375 14.984375 
L 10.796875 14.984375 
Q 10.984375 9.1875 14.421875 6.296875 
Q 17.875 3.421875 24.609375 3.421875 
Q 30.671875 3.421875 33.84375 5.6875 
Q 37.015625 7.953125 37.015625 12.3125 
Q 37.015625 15.71875 34.6875 17.8125 
Q 32.375 19.921875 24.90625 22.3125 
L 18.40625 24.515625 
Q 11.71875 26.65625 8.71875 29.875 
Q 5.71875 33.109375 5.71875 38.09375 
Q 5.71875 45.21875 10.9375 49.265625 
Q 16.15625 53.328125 25.390625 53.328125 
Q 29.5 53.328125 34.03125 52.25 
Q 38.578125 51.171875 43.40625 49.125 
L 43.40625 37.796875 
L 38.234375 37.796875 
Q 38.03125 42.828125 34.703125 45.65625 
Q 31.390625 48.484375 25.6875 48.484375 
Q 20.015625 48.484375 17.109375 46.484375 
Q 14.203125 44.484375 14.203125 40.484375 
Q 14.203125 37.203125 16.40625 35.21875 
Q 18.609375 33.25 25.203125 31.203125 
L 32.328125 29 
Q 39.703125 26.703125 42.9375 23.265625 
Q 46.1875 19.828125 46.1875 14.40625 
Q 46.1875 7.03125 40.546875 2.796875 
Q 34.90625 -1.421875 25 -1.421875 
Q 19.96875 -1.421875 15.1875 -0.34375 
Q 10.40625 0.734375 5.609375 2.875 
z
" id="DejaVuSerif-115"/>
     </defs>
     <g transform="translate(111.738578 239.108906)scale(0.09 -0.09)">
      <use xlink:href="#DejaVuSerif-73"/>
      <use x="39.501953" xlink:href="#DejaVuSerif-116"/>
      <use x="79.6875" xlink:href="#DejaVuSerif-101"/>
      <use x="138.867188" xlink:href="#DejaVuSerif-114"/>
      <use x="186.669922" xlink:href="#DejaVuSerif-97"/>
      <use x="246.289062" xlink:href="#DejaVuSerif-116"/>
      <use x="286.474609" xlink:href="#DejaVuSerif-105"/>
      <use x="318.457031" xlink:href="#DejaVuSerif-111"/>
      <use x="378.662109" xlink:href="#DejaVuSerif-110"/>
      <use x="443.066406" xlink:href="#DejaVuSerif-115"/>
     </g>
    </g>
   </g>
   <g id="matplotlib.axis_2">
    <g id="ytick_1">
     <g id="line2d_5">
      <defs>
       <path d="M 0 0 
L -3.5 0 
" id="me3ddf606b3" style="stroke:#000000;stroke-width:0.8;"/>
      </defs>
      <g>
       <use style="stroke:#000000;stroke-width:0.8;" x="55.519811" xlink:href="#me3ddf606b3" y="185.85812"/>
      </g>
     </g>
     <g id="text_6">
      <!-- $\mathdefault{10^{-11}}$ -->
      <defs>
       <path d="M 10.59375 35.296875 
L 73.1875 35.296875 
L 73.1875 27.390625 
L 10.59375 27.390625 
z
" id="DejaVuSerif-8722"/>
      </defs>
      <g transform="translate(23.409811 189.277417)scale(0.09 -0.09)">
       <use transform="translate(0 0.7125)" xlink:href="#DejaVuSerif-49"/>
       <use transform="translate(63.623047 0.7125)" xlink:href="#DejaVuSerif-48"/>
       <use transform="translate(128.154453 37.046875)scale(0.7)" xlink:href="#DejaVuSerif-8722"/>
       <use transform="translate(186.806797 37.046875)scale(0.7)" xlink:href="#DejaVuSerif-49"/>
       <use transform="translate(231.34293 37.046875)scale(0.7)" xlink:href="#DejaVuSerif-49"/>
      </g>
     </g>
    </g>
    <g id="ytick_2">
     <g id="line2d_6">
      <g>
       <use style="stroke:#000000;stroke-width:0.8;" x="55.519811" xlink:href="#me3ddf606b3" y="158.300115"/>
      </g>
     </g>
     <g id="text_7">
      <!-- $\mathdefault{10^{-9}}$ -->
      <defs>
       <path d="M 46.78125 32.671875 
Q 43.5 29 39.25 27.1875 
Q 35.015625 25.390625 29.6875 25.390625 
Q 18.84375 25.390625 12.5625 31.9375 
Q 6.296875 38.484375 6.296875 49.8125 
Q 6.296875 60.890625 13.109375 67.546875 
Q 19.921875 74.21875 31.296875 74.21875 
Q 43.65625 74.21875 50.265625 65.015625 
Q 56.890625 55.8125 56.890625 38.71875 
Q 56.890625 19.578125 49.015625 9.078125 
Q 41.15625 -1.421875 26.90625 -1.421875 
Q 23.046875 -1.421875 18.796875 -0.6875 
Q 14.546875 0.046875 10.109375 1.515625 
L 10.109375 13.625 
L 15.578125 13.625 
Q 16.21875 8.6875 19.390625 6.046875 
Q 22.5625 3.421875 27.875 3.421875 
Q 37.359375 3.421875 41.984375 10.5625 
Q 46.625 17.71875 46.78125 32.671875 
z
M 30.90625 69.390625 
Q 23.96875 69.390625 20.28125 64.328125 
Q 16.609375 59.28125 16.609375 49.8125 
Q 16.609375 40.328125 20.28125 35.25 
Q 23.96875 30.171875 30.90625 30.171875 
Q 37.84375 30.171875 41.53125 35.078125 
Q 45.21875 39.984375 45.21875 49.21875 
Q 45.21875 58.9375 41.5 64.15625 
Q 37.796875 69.390625 30.90625 69.390625 
z
" id="DejaVuSerif-57"/>
      </defs>
      <g transform="translate(27.459811 161.719412)scale(0.09 -0.09)">
       <use transform="translate(0 0.7125)" xlink:href="#DejaVuSerif-49"/>
       <use transform="translate(63.623047 0.7125)" xlink:href="#DejaVuSerif-48"/>
       <use transform="translate(128.154453 37.046875)scale(0.7)" xlink:href="#DejaVuSerif-8722"/>
       <use transform="translate(186.806797 37.046875)scale(0.7)" xlink:href="#DejaVuSerif-57"/>
      </g>
     </g>
    </g>
    <g id="ytick_3">
     <g id="line2d_7">
      <g>
       <use style="stroke:#000000;stroke-width:0.8;" x="55.519811" xlink:href="#me3ddf606b3" y="130.74211"/>
      </g>
     </g>
     <g id="text_8">
      <!-- $\mathdefault{10^{-7}}$ -->
      <defs>
       <path d="M 56.390625 67.921875 
L 27.875 0 
L 20.609375 0 
L 47.796875 64.890625 
L 14.109375 64.890625 
L 14.109375 55.90625 
L 8.40625 55.90625 
L 8.40625 72.90625 
L 56.390625 72.90625 
z
" id="DejaVuSerif-55"/>
      </defs>
      <g transform="translate(27.459811 134.161407)scale(0.09 -0.09)">
       <use transform="translate(0 0.63125)" xlink:href="#DejaVuSerif-49"/>
       <use transform="translate(63.623047 0.63125)" xlink:href="#DejaVuSerif-48"/>
       <use transform="translate(128.154453 36.965625)scale(0.7)" xlink:href="#DejaVuSerif-8722"/>
       <use transform="translate(186.806797 36.965625)scale(0.7)" xlink:href="#DejaVuSerif-55"/>
      </g>
     </g>
    </g>
    <g id="ytick_4">
     <g id="line2d_8">
      <g>
       <use style="stroke:#000000;stroke-width:0.8;" x="55.519811" xlink:href="#me3ddf606b3" y="103.184104"/>
      </g>
     </g>
     <g id="text_9">
      <!-- $\mathdefault{10^{-5}}$ -->
      <defs>
       <path d="M 50.296875 72.90625 
L 50.296875 64.890625 
L 16.890625 64.890625 
L 16.890625 44 
Q 19.4375 45.75 22.828125 46.625 
Q 26.21875 47.515625 30.421875 47.515625 
Q 42.234375 47.515625 49.0625 40.96875 
Q 55.90625 34.421875 55.90625 23.09375 
Q 55.90625 11.53125 49 5.046875 
Q 42.09375 -1.421875 29.59375 -1.421875 
Q 24.5625 -1.421875 19.28125 -0.1875 
Q 14.015625 1.03125 8.5 3.515625 
L 8.5 17.671875 
L 14.015625 17.671875 
Q 14.453125 10.75 18.421875 7.078125 
Q 22.40625 3.421875 29.59375 3.421875 
Q 37.3125 3.421875 41.453125 8.5 
Q 45.609375 13.578125 45.609375 23.09375 
Q 45.609375 32.5625 41.484375 37.609375 
Q 37.359375 42.671875 29.59375 42.671875 
Q 25.203125 42.671875 21.84375 41.109375 
Q 18.5 39.546875 15.921875 36.28125 
L 11.71875 36.28125 
L 11.71875 72.90625 
z
" id="DejaVuSerif-53"/>
      </defs>
      <g transform="translate(27.459811 106.603401)scale(0.09 -0.09)">
       <use transform="translate(0 0.63125)" xlink:href="#DejaVuSerif-49"/>
       <use transform="translate(63.623047 0.63125)" xlink:href="#DejaVuSerif-48"/>
       <use transform="translate(128.154453 36.965625)scale(0.7)" xlink:href="#DejaVuSerif-8722"/>
       <use transform="translate(186.806797 36.965625)scale(0.7)" xlink:href="#DejaVuSerif-53"/>
      </g>
     </g>
    </g>
    <g id="ytick_5">
     <g id="line2d_9">
      <g>
       <use style="stroke:#000000;stroke-width:0.8;" x="55.519811" xlink:href="#me3ddf606b3" y="75.626099"/>
      </g>
     </g>
     <g id="text_10">
      <!-- $\mathdefault{10^{-3}}$ -->
      <g transform="translate(27.459811 79.045396)scale(0.09 -0.09)">
       <use transform="translate(0 0.7125)" xlink:href="#DejaVuSerif-49"/>
       <use transform="translate(63.623047 0.7125)" xlink:href="#DejaVuSerif-48"/>
       <use transform="translate(128.154453 37.046875)scale(0.7)" xlink:href="#DejaVuSerif-8722"/>
       <use transform="translate(186.806797 37.046875)scale(0.7)" xlink:href="#DejaVuSerif-51"/>
      </g>
     </g>
    </g>
    <g id="ytick_6">
     <g id="line2d_10">
      <g>
       <use style="stroke:#000000;stroke-width:0.8;" x="55.519811" xlink:href="#me3ddf606b3" y="48.068094"/>
      </g>
     </g>
     <g id="text_11">
      <!-- $\mathdefault{10^{-1}}$ -->
      <g transform="translate(27.459811 51.48739)scale(0.09 -0.09)">
       <use transform="translate(0 0.7125)" xlink:href="#DejaVuSerif-49"/>
       <use transform="translate(63.623047 0.7125)" xlink:href="#DejaVuSerif-48"/>
       <use transform="translate(128.154453 37.046875)scale(0.7)" xlink:href="#DejaVuSerif-8722"/>
       <use transform="translate(186.806797 37.046875)scale(0.7)" xlink:href="#DejaVuSerif-49"/>
      </g>
     </g>
    </g>
    <g id="text_12">
     <!-- Residual norm -->
     <defs>
      <path d="M 47.90625 36.1875 
Q 51.3125 35.25 53.78125 33.03125 
Q 56.25 30.8125 58.203125 26.8125 
L 68.796875 5.171875 
L 77.6875 5.171875 
L 77.6875 0 
L 60.5 0 
L 49.125 23.1875 
Q 45.84375 29.9375 43.109375 31.90625 
Q 40.375 33.890625 35.59375 33.890625 
L 24.703125 33.890625 
L 24.703125 5.171875 
L 35.015625 5.171875 
L 35.015625 0 
L 5.515625 0 
L 5.515625 5.171875 
L 14.796875 5.171875 
L 14.796875 67.671875 
L 5.515625 67.671875 
L 5.515625 72.90625 
L 42.484375 72.90625 
Q 53.125 72.90625 58.90625 67.828125 
Q 64.703125 62.75 64.703125 53.421875 
Q 64.703125 45.90625 60.46875 41.578125 
Q 56.25 37.25 47.90625 36.1875 
z
M 24.703125 39.109375 
L 39.109375 39.109375 
Q 46.484375 39.109375 50 42.59375 
Q 53.515625 46.09375 53.515625 53.421875 
Q 53.515625 60.75 50 64.203125 
Q 46.484375 67.671875 39.109375 67.671875 
L 24.703125 67.671875 
z
" id="DejaVuSerif-82"/>
      <path d="M 52.484375 5.171875 
L 61.078125 5.171875 
L 61.078125 0 
L 43.5 0 
L 43.5 8.109375 
Q 40.875 3.21875 36.796875 0.890625 
Q 32.71875 -1.421875 26.703125 -1.421875 
Q 17.140625 -1.421875 11.0625 6.171875 
Q 4.984375 13.765625 4.984375 25.984375 
Q 4.984375 38.1875 11.03125 45.75 
Q 17.09375 53.328125 26.703125 53.328125 
Q 32.71875 53.328125 36.796875 51 
Q 40.875 48.6875 43.5 43.796875 
L 43.5 70.796875 
L 35.015625 70.796875 
L 35.015625 75.984375 
L 52.484375 75.984375 
z
M 43.5 23.390625 
L 43.5 28.515625 
Q 43.5 37.84375 39.90625 42.765625 
Q 36.328125 47.703125 29.5 47.703125 
Q 22.5625 47.703125 19.015625 42.234375 
Q 15.484375 36.765625 15.484375 25.984375 
Q 15.484375 15.234375 19.015625 9.71875 
Q 22.5625 4.203125 29.5 4.203125 
Q 36.328125 4.203125 39.90625 9.109375 
Q 43.5 14.015625 43.5 23.390625 
z
" id="DejaVuSerif-100"/>
      <path d="M 35.40625 51.90625 
L 52.203125 51.90625 
L 52.203125 5.171875 
L 60.6875 5.171875 
L 60.6875 0 
L 43.21875 0 
L 43.21875 9.1875 
Q 40.71875 4 36.765625 1.28125 
Q 32.8125 -1.421875 27.59375 -1.421875 
Q 18.953125 -1.421875 14.875 3.484375 
Q 10.796875 8.40625 10.796875 18.890625 
L 10.796875 46.6875 
L 2.6875 46.6875 
L 2.6875 51.90625 
L 19.828125 51.90625 
L 19.828125 21.6875 
Q 19.828125 12.203125 22.140625 8.6875 
Q 24.46875 5.171875 30.421875 5.171875 
Q 36.671875 5.171875 39.9375 9.765625 
Q 43.21875 14.359375 43.21875 23.09375 
L 43.21875 46.6875 
L 35.40625 46.6875 
z
" id="DejaVuSerif-117"/>
      <path d="M 20.515625 5.171875 
L 29 5.171875 
L 29 0 
L 2.875 0 
L 2.875 5.171875 
L 11.53125 5.171875 
L 11.53125 70.796875 
L 2.875 70.796875 
L 2.875 75.984375 
L 20.515625 75.984375 
z
" id="DejaVuSerif-108"/>
      <path id="DejaVuSerif-32"/>
      <path d="M 51.8125 41.796875 
Q 54.390625 47.515625 58.421875 50.421875 
Q 62.453125 53.328125 67.828125 53.328125 
Q 75.984375 53.328125 79.984375 48.265625 
Q 83.984375 43.21875 83.984375 33.015625 
L 83.984375 5.171875 
L 92.09375 5.171875 
L 92.09375 0 
L 67.1875 0 
L 67.1875 5.171875 
L 75 5.171875 
L 75 31.984375 
Q 75 39.9375 72.65625 43.3125 
Q 70.3125 46.6875 64.890625 46.6875 
Q 58.890625 46.6875 55.734375 42.140625 
Q 52.59375 37.59375 52.59375 28.90625 
L 52.59375 5.171875 
L 60.40625 5.171875 
L 60.40625 0 
L 35.796875 0 
L 35.796875 5.171875 
L 43.609375 5.171875 
L 43.609375 32.328125 
Q 43.609375 40.09375 41.265625 43.390625 
Q 38.921875 46.6875 33.5 46.6875 
Q 27.484375 46.6875 24.328125 42.140625 
Q 21.1875 37.59375 21.1875 28.90625 
L 21.1875 5.171875 
L 29 5.171875 
L 29 0 
L 4.109375 0 
L 4.109375 5.171875 
L 12.203125 5.171875 
L 12.203125 46.78125 
L 3.609375 46.78125 
L 3.609375 51.90625 
L 21.1875 51.90625 
L 21.1875 42.671875 
Q 23.6875 47.859375 27.53125 50.59375 
Q 31.390625 53.328125 36.28125 53.328125 
Q 42.328125 53.328125 46.375 50.3125 
Q 50.4375 47.3125 51.8125 41.796875 
z
" id="DejaVuSerif-109"/>
     </defs>
     <g transform="translate(17.538093 152.337266)rotate(-90)scale(0.09 -0.09)">
      <use xlink:href="#DejaVuSerif-82"/>
      <use x="75.292969" xlink:href="#DejaVuSerif-101"/>
      <use x="134.472656" xlink:href="#DejaVuSerif-115"/>
      <use x="185.791016" xlink:href="#DejaVuSerif-105"/>
      <use x="217.773438" xlink:href="#DejaVuSerif-100"/>
      <use x="281.787109" xlink:href="#DejaVuSerif-117"/>
      <use x="346.191406" xlink:href="#DejaVuSerif-97"/>
      <use x="405.810547" xlink:href="#DejaVuSerif-108"/>
      <use x="437.792969" xlink:href="#DejaVuSerif-32"/>
      <use x="469.580078" xlink:href="#DejaVuSerif-110"/>
      <use x="533.984375" xlink:href="#DejaVuSerif-111"/>
      <use x="594.189453" xlink:href="#DejaVuSerif-114"/>
      <use x="641.992188" xlink:href="#DejaVuSerif-109"/>
     </g>
    </g>
   </g>
   <g id="line2d_11">
    <path clip-path="url(#p804dac7e02)" d="M 62.653115 34.289091 
L 63.103166 34.289091 
L 63.553217 35.710405 
L 64.003268 37.606364 
L 64.453318 40.084901 
L 65.35342 46.450293 
L 65.80347 46.911655 
L 66.253521 45.815505 
L 66.703572 45.183375 
L 67.153623 45.060871 
L 67.603673 45.237872 
L 68.953826 46.304859 
L 70.303978 47.595291 
L 71.65413 49.223563 
L 73.004282 51.206362 
L 77.054739 57.550207 
L 78.404891 59.122772 
L 80.655144 61.286403 
L 83.355449 63.952061 
L 86.055753 66.999887 
L 89.206108 70.917683 
L 93.706616 76.940679 
L 96.856971 81.026859 
L 99.557275 84.15612 
L 107.208137 92.754013 
L 114.408949 101.002217 
L 127.46042 115.796022 
L 185.516964 181.624717 
L 205.319196 204.070909 
L 205.319196 204.070909 
" style="fill:none;stroke:#000000;stroke-linecap:square;stroke-width:0.9;"/>
   </g>
   <g id="line2d_12">
    <path clip-path="url(#p804dac7e02)" d="M 62.653115 34.289091 
L 63.103166 34.289091 
L 63.553217 37.469264 
L 64.003268 42.004258 
L 64.453318 48.064606 
L 64.903369 48.462186 
L 65.35342 46.99265 
L 65.80347 46.763025 
L 66.253521 47.113521 
L 67.153623 48.538097 
L 68.053724 50.467544 
L 73.454333 63.212887 
L 76.604688 70.192421 
L 79.755043 77.810857 
L 83.8055 87.604523 
L 91.906413 105.971416 
L 127.46042 185.811175 
L 135.561333 204.002395 
L 135.561333 204.002395 
" style="fill:none;stroke:#0000ff;stroke-linecap:square;stroke-width:0.9;"/>
   </g>
   <g id="line2d_13">
    <path clip-path="url(#p804dac7e02)" d="M 62.653115 34.289091 
L 63.103166 34.289091 
L 63.553217 40.439333 
L 64.003268 50.263704 
L 64.453318 49.421561 
L 64.903369 48.415962 
L 65.35342 49.149226 
L 65.80347 50.500834 
L 66.253521 52.12814 
L 66.703572 53.885748 
L 67.153623 55.700498 
L 67.603673 57.536606 
L 68.053724 59.380301 
L 68.503775 61.229741 
L 68.953826 63.088004 
L 69.403876 64.958906 
L 69.853927 66.845262 
L 70.303978 68.748901 
L 70.754028 70.671411 
L 71.204079 72.614689 
L 71.65413 74.58085 
L 72.104181 76.571639 
L 72.554231 78.587743 
L 73.004282 80.628359 
L 73.454333 82.69116 
L 73.904384 84.772615 
L 74.354434 86.868537 
L 74.804485 88.974691 
L 75.254536 91.087334 
L 75.704586 93.20358 
L 76.154637 95.321562 
L 76.604688 97.440398 
L 77.054739 99.560012 
L 77.504789 101.680886 
L 77.95484 103.8038 
L 78.404891 105.929613 
L 78.854942 108.0591 
L 79.304992 110.192865 
L 79.755043 112.331303 
L 80.205094 114.474607 
L 80.655144 116.622805 
L 81.105195 118.775801 
L 81.555246 120.933427 
L 82.005297 123.095479 
L 82.455347 125.261752 
L 82.905398 127.432065 
L 83.355449 129.606273 
L 83.8055 131.784276 
L 84.25555 133.966017 
L 84.705601 136.151478 
L 85.155652 138.340674 
L 85.605702 140.533648 
L 86.055753 142.730458 
L 86.505804 144.931171 
L 86.955855 147.135861 
L 87.405905 149.344596 
L 87.855956 151.557454 
L 88.306007 153.774491 
L 88.756058 155.995783 
L 89.206108 158.221377 
L 89.656159 160.451353 
L 90.10621 162.685787 
L 90.55626 164.924718 
L 91.006311 167.168272 
L 91.456362 169.416555 
L 91.906413 171.669584 
L 92.356463 173.927671 
L 92.806514 176.190701 
L 93.256565 178.459042 
L 93.706616 180.732552 
L 94.156666 183.011863 
L 94.606717 185.296671 
L 95.056768 187.586904 
L 95.506818 189.885651 
L 95.956869 192.18703 
L 96.40692 194.502183 
L 96.856971 196.818692 
L 97.307021 199.139906 
L 97.757072 201.471878 
L 98.207123 203.810299 
" style="fill:none;stroke:#ff0000;stroke-linecap:square;stroke-width:0.9;"/>
   </g>
   <g id="patch_3">
    <path d="M 55.519811 212.56 
L 55.519811 25.8 
" style="fill:none;stroke:#000000;stroke-linecap:square;stroke-linejoin:miter;stroke-width:0.8;"/>
   </g>
   <g id="patch_4">
    <path d="M 212.4525 212.56 
L 212.4525 25.8 
" style="fill:none;stroke:#000000;stroke-linecap:square;stroke-linejoin:miter;stroke-width:0.8;"/>
   </g>
   <g id="patch_5">
    <path d="M 55.519811 212.56 
L 212.4525 212.56 
" style="fill:none;stroke:#000000;stroke-linecap:square;stroke-linejoin:miter;stroke-width:0.8;"/>
   </g>
   <g id="patch_6">
    <path d="M 55.519811 25.8 
L 212.4525 25.8 
" style="fill:none;stroke:#000000;stroke-linecap:square;stroke-linejoin:miter;stroke-width:0.8;"/>
   </g>
   <g id="text_13">
    <!-- Effect of $C_n$ -->
    <defs>
     <path d="M 5.515625 0 
L 5.515625 5.171875 
L 14.796875 5.171875 
L 14.796875 67.671875 
L 5.515625 67.671875 
L 5.515625 72.90625 
L 64.203125 72.90625 
L 64.203125 56.6875 
L 58.203125 56.6875 
L 58.203125 66.890625 
L 24.703125 66.890625 
L 24.703125 42.484375 
L 48.578125 42.484375 
L 48.578125 51.609375 
L 54.59375 51.609375 
L 54.59375 27.390625 
L 48.578125 27.390625 
L 48.578125 36.53125 
L 24.703125 36.53125 
L 24.703125 6 
L 58.984375 6 
L 58.984375 16.21875 
L 64.984375 16.21875 
L 64.984375 0 
z
" id="DejaVuSerif-69"/>
     <path d="M 43.015625 63.71875 
L 38.28125 63.71875 
Q 38.234375 67.390625 36.203125 69.28125 
Q 34.1875 71.1875 30.328125 71.1875 
Q 25.296875 71.1875 23.234375 68.421875 
Q 21.1875 65.671875 21.1875 58.59375 
L 21.1875 51.90625 
L 35.6875 51.90625 
L 35.6875 46.6875 
L 21.1875 46.6875 
L 21.1875 5.171875 
L 32.71875 5.171875 
L 32.71875 0 
L 3.609375 0 
L 3.609375 5.171875 
L 12.203125 5.171875 
L 12.203125 46.6875 
L 3.609375 46.6875 
L 3.609375 51.90625 
L 12.203125 51.90625 
L 12.203125 58.40625 
Q 12.203125 67.09375 16.71875 71.53125 
Q 21.234375 75.984375 29.984375 75.984375 
Q 33.25 75.984375 36.515625 75.390625 
Q 39.796875 74.8125 43.015625 73.578125 
z
" id="DejaVuSerif-102"/>
     <path d="M 51.421875 15.578125 
Q 49.515625 7.28125 44.09375 2.921875 
Q 38.671875 -1.421875 30.078125 -1.421875 
Q 18.75 -1.421875 11.859375 6.078125 
Q 4.984375 13.578125 4.984375 25.984375 
Q 4.984375 38.421875 11.859375 45.875 
Q 18.75 53.328125 30.078125 53.328125 
Q 35.015625 53.328125 39.890625 52.171875 
Q 44.78125 51.03125 49.703125 48.6875 
L 49.703125 35.40625 
L 44.484375 35.40625 
Q 43.453125 42.234375 40.015625 45.359375 
Q 36.578125 48.484375 30.171875 48.484375 
Q 22.90625 48.484375 19.1875 42.84375 
Q 15.484375 37.203125 15.484375 25.984375 
Q 15.484375 14.75 19.171875 9.078125 
Q 22.859375 3.421875 30.171875 3.421875 
Q 35.984375 3.421875 39.453125 6.4375 
Q 42.921875 9.46875 44.1875 15.578125 
z
" id="DejaVuSerif-99"/>
     <path d="M 69.484375 67.28125 
L 67.484375 56.890625 
Q 62.796875 61.625 57.546875 63.921875 
Q 52.296875 66.21875 46.1875 66.21875 
Q 37.84375 66.21875 31.515625 62.203125 
Q 25.203125 58.203125 20.609375 50 
Q 17.671875 44.734375 16.125 38.84375 
Q 14.59375 32.953125 14.59375 27 
Q 14.59375 17.046875 19.75 11.8125 
Q 24.90625 6.59375 34.71875 6.59375 
Q 41.5 6.59375 47.75 8.765625 
Q 54 10.9375 59.90625 15.28125 
L 57.625 3.609375 
Q 51.8125 1.125 45.875 -0.140625 
Q 39.9375 -1.421875 33.984375 -1.421875 
Q 19.96875 -1.421875 12.078125 6.1875 
Q 4.203125 13.8125 4.203125 27.390625 
Q 4.203125 36.078125 7.203125 44.46875 
Q 10.203125 52.875 15.828125 59.8125 
Q 21.78125 67.1875 29.421875 70.703125 
Q 37.0625 74.21875 47.21875 74.21875 
Q 53.46875 74.21875 59.0625 72.484375 
Q 64.65625 70.75 69.484375 67.28125 
z
" id="DejaVuSans-Oblique-67"/>
     <path d="M 55.71875 33.015625 
L 49.3125 0 
L 40.28125 0 
L 46.6875 32.671875 
Q 47.125 34.96875 47.359375 36.71875 
Q 47.609375 38.484375 47.609375 39.5 
Q 47.609375 43.609375 45.015625 45.890625 
Q 42.4375 48.1875 37.796875 48.1875 
Q 30.5625 48.1875 25.34375 43.375 
Q 20.125 38.578125 18.5 30.328125 
L 12.5 0 
L 3.515625 0 
L 14.109375 54.6875 
L 23.09375 54.6875 
L 21.296875 46.09375 
Q 25.046875 50.828125 30.3125 53.40625 
Q 35.59375 56 41.40625 56 
Q 48.640625 56 52.609375 52.09375 
Q 56.59375 48.1875 56.59375 41.109375 
Q 56.59375 39.359375 56.375 37.359375 
Q 56.15625 35.359375 55.71875 33.015625 
z
" id="DejaVuSans-Oblique-110"/>
    </defs>
    <g transform="translate(102.612156 19.8)scale(0.108 -0.108)">
     <use transform="translate(0 0.015625)" xlink:href="#DejaVuSerif-69"/>
     <use transform="translate(72.998047 0.015625)" xlink:href="#DejaVuSerif-102"/>
     <use transform="translate(110.009766 0.015625)" xlink:href="#DejaVuSerif-102"/>
     <use transform="translate(147.021484 0.015625)" xlink:href="#DejaVuSerif-101"/>
     <use transform="translate(206.201172 0.015625)" xlink:href="#DejaVuSerif-99"/>
     <use transform="translate(262.207031 0.015625)" xlink:href="#DejaVuSerif-116"/>
     <use transform="translate(302.392578 0.015625)" xlink:href="#DejaVuSerif-32"/>
     <use transform="translate(334.179688 0.015625)" xlink:href="#DejaVuSerif-111"/>
     <use transform="translate(394.384766 0.015625)" xlink:href="#DejaVuSerif-102"/>
     <use transform="translate(431.396484 0.015625)" xlink:href="#DejaVuSerif-32"/>
     <use transform="translate(463.183594 0.015625)" xlink:href="#DejaVuSans-Oblique-67"/>
     <use transform="translate(533.007812 -16.390625)scale(0.7)" xlink:href="#DejaVuSans-Oblique-110"/>
    </g>
   </g>
   <g id="legend_1">
    <g id="line2d_14">
     <path d="M 146.1225 37.588594 
L 164.1225 37.588594 
" style="fill:none;stroke:#000000;stroke-linecap:square;stroke-width:0.9;"/>
    </g>
    <g id="line2d_15"/>
    <g id="text_14">
     <!-- $C_n = 10$ -->
     <defs>
      <path d="M 10.59375 45.40625 
L 73.1875 45.40625 
L 73.1875 37.203125 
L 10.59375 37.203125 
z
M 10.59375 25.484375 
L 73.1875 25.484375 
L 73.1875 17.1875 
L 10.59375 17.1875 
z
" id="DejaVuSans-61"/>
      <path d="M 12.40625 8.296875 
L 28.515625 8.296875 
L 28.515625 63.921875 
L 10.984375 60.40625 
L 10.984375 69.390625 
L 28.421875 72.90625 
L 38.28125 72.90625 
L 38.28125 8.296875 
L 54.390625 8.296875 
L 54.390625 0 
L 12.40625 0 
z
" id="DejaVuSans-49"/>
      <path d="M 31.78125 66.40625 
Q 24.171875 66.40625 20.328125 58.90625 
Q 16.5 51.421875 16.5 36.375 
Q 16.5 21.390625 20.328125 13.890625 
Q 24.171875 6.390625 31.78125 6.390625 
Q 39.453125 6.390625 43.28125 13.890625 
Q 47.125 21.390625 47.125 36.375 
Q 47.125 51.421875 43.28125 58.90625 
Q 39.453125 66.40625 31.78125 66.40625 
z
M 31.78125 74.21875 
Q 44.046875 74.21875 50.515625 64.515625 
Q 56.984375 54.828125 56.984375 36.375 
Q 56.984375 17.96875 50.515625 8.265625 
Q 44.046875 -1.421875 31.78125 -1.421875 
Q 19.53125 -1.421875 13.0625 8.265625 
Q 6.59375 17.96875 6.59375 36.375 
Q 6.59375 54.828125 13.0625 64.515625 
Q 19.53125 74.21875 31.78125 74.21875 
z
" id="DejaVuSans-48"/>
     </defs>
     <g transform="translate(171.3225 40.738594)scale(0.09 -0.09)">
      <use transform="translate(0 0.78125)" xlink:href="#DejaVuSans-Oblique-67"/>
      <use transform="translate(69.824219 -15.625)scale(0.7)" xlink:href="#DejaVuSans-Oblique-110"/>
      <use transform="translate(136.40625 0.78125)" xlink:href="#DejaVuSans-61"/>
      <use transform="translate(239.677734 0.78125)" xlink:href="#DejaVuSans-49"/>
      <use transform="translate(303.300781 0.78125)" xlink:href="#DejaVuSans-48"/>
     </g>
    </g>
    <g id="line2d_16">
     <path d="M 146.1225 50.798906 
L 164.1225 50.798906 
" style="fill:none;stroke:#0000ff;stroke-linecap:square;stroke-width:0.9;"/>
    </g>
    <g id="line2d_17"/>
    <g id="text_15">
     <!-- $C_n = 20$ -->
     <defs>
      <path d="M 19.1875 8.296875 
L 53.609375 8.296875 
L 53.609375 0 
L 7.328125 0 
L 7.328125 8.296875 
Q 12.9375 14.109375 22.625 23.890625 
Q 32.328125 33.6875 34.8125 36.53125 
Q 39.546875 41.84375 41.421875 45.53125 
Q 43.3125 49.21875 43.3125 52.78125 
Q 43.3125 58.59375 39.234375 62.25 
Q 35.15625 65.921875 28.609375 65.921875 
Q 23.96875 65.921875 18.8125 64.3125 
Q 13.671875 62.703125 7.8125 59.421875 
L 7.8125 69.390625 
Q 13.765625 71.78125 18.9375 73 
Q 24.125 74.21875 28.421875 74.21875 
Q 39.75 74.21875 46.484375 68.546875 
Q 53.21875 62.890625 53.21875 53.421875 
Q 53.21875 48.921875 51.53125 44.890625 
Q 49.859375 40.875 45.40625 35.40625 
Q 44.1875 33.984375 37.640625 27.21875 
Q 31.109375 20.453125 19.1875 8.296875 
z
" id="DejaVuSans-50"/>
     </defs>
     <g transform="translate(171.3225 53.948906)scale(0.09 -0.09)">
      <use transform="translate(0 0.78125)" xlink:href="#DejaVuSans-Oblique-67"/>
      <use transform="translate(69.824219 -15.625)scale(0.7)" xlink:href="#DejaVuSans-Oblique-110"/>
      <use transform="translate(136.40625 0.78125)" xlink:href="#DejaVuSans-61"/>
      <use transform="translate(239.677734 0.78125)" xlink:href="#DejaVuSans-50"/>
      <use transform="translate(303.300781 0.78125)" xlink:href="#DejaVuSans-48"/>
     </g>
    </g>
    <g id="line2d_18">
     <path d="M 146.1225 64.009219 
L 164.1225 64.009219 
" style="fill:none;stroke:#ff0000;stroke-linecap:square;stroke-width:0.9;"/>
    </g>
    <g id="line2d_19"/>
    <g id="text_16">
     <!-- $C_n = 40$ -->
     <defs>
      <path d="M 37.796875 64.3125 
L 12.890625 25.390625 
L 37.796875 25.390625 
z
M 35.203125 72.90625 
L 47.609375 72.90625 
L 47.609375 25.390625 
L 58.015625 25.390625 
L 58.015625 17.1875 
L 47.609375 17.1875 
L 47.609375 0 
L 37.796875 0 
L 37.796875 17.1875 
L 4.890625 17.1875 
L 4.890625 26.703125 
z
" id="DejaVuSans-52"/>
     </defs>
     <g transform="translate(171.3225 67.159219)scale(0.09 -0.09)">
      <use transform="translate(0 0.78125)" xlink:href="#DejaVuSans-Oblique-67"/>
      <use transform="translate(69.824219 -15.625)scale(0.7)" xlink:href="#DejaVuSans-Oblique-110"/>
      <use transform="translate(136.40625 0.78125)" xlink:href="#DejaVuSans-61"/>
      <use transform="translate(239.677734 0.78125)" xlink:href="#DejaVuSans-52"/>
      <use transform="translate(303.300781 0.78125)" xlink:href="#DejaVuSans-48"/>
     </g>
    </g>
   </g>
  </g>
  <g id="axes_2">
   <g id="patch_7">
    <path d="M 268.433561 212.56 
L 425.36625 212.56 
L 425.36625 25.8 
L 268.433561 25.8 
z
" style="fill:#ffffff;"/>
   </g>
   <g id="matplotlib.axis_3">
    <g id="xtick_5">
     <g id="line2d_20">
      <g>
       <use style="stroke:#000000;stroke-width:0.8;" x="273.888441" xlink:href="#m03efcaef3c" y="212.56"/>
      </g>
     </g>
     <g id="text_17">
      <!-- 0 -->
      <g transform="translate(271.025316 226.398594)scale(0.09 -0.09)">
       <use xlink:href="#DejaVuSerif-48"/>
      </g>
     </g>
    </g>
    <g id="xtick_6">
     <g id="line2d_21">
      <g>
       <use style="stroke:#000000;stroke-width:0.8;" x="307.45693" xlink:href="#m03efcaef3c" y="212.56"/>
      </g>
     </g>
     <g id="text_18">
      <!-- 20 -->
      <g transform="translate(301.73068 226.398594)scale(0.09 -0.09)">
       <use xlink:href="#DejaVuSerif-50"/>
       <use x="63.623047" xlink:href="#DejaVuSerif-48"/>
      </g>
     </g>
    </g>
    <g id="xtick_7">
     <g id="line2d_22">
      <g>
       <use style="stroke:#000000;stroke-width:0.8;" x="341.02542" xlink:href="#m03efcaef3c" y="212.56"/>
      </g>
     </g>
     <g id="text_19">
      <!-- 40 -->
      <defs>
       <path d="M 34.90625 24.703125 
L 34.90625 63.484375 
L 10.015625 24.703125 
z
M 56.390625 0 
L 23.1875 0 
L 23.1875 5.171875 
L 34.90625 5.171875 
L 34.90625 19.484375 
L 3.078125 19.484375 
L 3.078125 24.8125 
L 35.015625 74.21875 
L 44.671875 74.21875 
L 44.671875 24.703125 
L 58.59375 24.703125 
L 58.59375 19.484375 
L 44.671875 19.484375 
L 44.671875 5.171875 
L 56.390625 5.171875 
z
" id="DejaVuSerif-52"/>
      </defs>
      <g transform="translate(335.29917 226.398594)scale(0.09 -0.09)">
       <use xlink:href="#DejaVuSerif-52"/>
       <use x="63.623047" xlink:href="#DejaVuSerif-48"/>
      </g>
     </g>
    </g>
    <g id="xtick_8">
     <g id="line2d_23">
      <g>
       <use style="stroke:#000000;stroke-width:0.8;" x="374.59391" xlink:href="#m03efcaef3c" y="212.56"/>
      </g>
     </g>
     <g id="text_20">
      <!-- 60 -->
      <defs>
       <path d="M 32.71875 3.421875 
Q 39.59375 3.421875 43.296875 8.46875 
Q 47.015625 13.53125 47.015625 23 
Q 47.015625 32.46875 43.296875 37.515625 
Q 39.59375 42.578125 32.71875 42.578125 
Q 25.734375 42.578125 22.0625 37.6875 
Q 18.40625 32.8125 18.40625 23.578125 
Q 18.40625 13.875 22.109375 8.640625 
Q 25.828125 3.421875 32.71875 3.421875 
z
M 16.796875 40.140625 
Q 20.125 43.796875 24.3125 45.59375 
Q 28.515625 47.40625 33.796875 47.40625 
Q 44.671875 47.40625 51 40.859375 
Q 57.328125 34.328125 57.328125 23 
Q 57.328125 11.921875 50.515625 5.25 
Q 43.703125 -1.421875 32.328125 -1.421875 
Q 19.96875 -1.421875 13.328125 7.78125 
Q 6.6875 17 6.6875 34.078125 
Q 6.6875 53.21875 14.546875 63.71875 
Q 22.40625 74.21875 36.71875 74.21875 
Q 40.578125 74.21875 44.828125 73.484375 
Q 49.078125 72.75 53.515625 71.296875 
L 53.515625 59.28125 
L 48 59.28125 
Q 47.40625 64.203125 44.234375 66.796875 
Q 41.0625 69.390625 35.6875 69.390625 
Q 26.21875 69.390625 21.578125 62.203125 
Q 16.9375 55.03125 16.796875 40.140625 
z
" id="DejaVuSerif-54"/>
      </defs>
      <g transform="translate(368.86766 226.398594)scale(0.09 -0.09)">
       <use xlink:href="#DejaVuSerif-54"/>
       <use x="63.623047" xlink:href="#DejaVuSerif-48"/>
      </g>
     </g>
    </g>
    <g id="xtick_9">
     <g id="line2d_24">
      <g>
       <use style="stroke:#000000;stroke-width:0.8;" x="408.162399" xlink:href="#m03efcaef3c" y="212.56"/>
      </g>
     </g>
     <g id="text_21">
      <!-- 80 -->
      <defs>
       <path d="M 46.578125 19.921875 
Q 46.578125 27.734375 42.6875 32.046875 
Q 38.8125 36.375 31.78125 36.375 
Q 24.75 36.375 20.875 32.046875 
Q 17 27.734375 17 19.921875 
Q 17 12.0625 20.875 7.734375 
Q 24.75 3.421875 31.78125 3.421875 
Q 38.8125 3.421875 42.6875 7.734375 
Q 46.578125 12.0625 46.578125 19.921875 
z
M 44.578125 55.328125 
Q 44.578125 61.96875 41.203125 65.671875 
Q 37.84375 69.390625 31.78125 69.390625 
Q 25.78125 69.390625 22.390625 65.671875 
Q 19 61.96875 19 55.328125 
Q 19 48.640625 22.390625 44.921875 
Q 25.78125 41.21875 31.78125 41.21875 
Q 37.84375 41.21875 41.203125 44.921875 
Q 44.578125 48.640625 44.578125 55.328125 
z
M 39.3125 38.8125 
Q 47.609375 37.703125 52.25 32.6875 
Q 56.890625 27.6875 56.890625 19.921875 
Q 56.890625 9.671875 50.390625 4.125 
Q 43.890625 -1.421875 31.78125 -1.421875 
Q 19.734375 -1.421875 13.203125 4.125 
Q 6.6875 9.671875 6.6875 19.921875 
Q 6.6875 27.6875 11.328125 32.6875 
Q 15.96875 37.703125 24.3125 38.8125 
Q 16.9375 40.140625 13 44.40625 
Q 9.078125 48.6875 9.078125 55.328125 
Q 9.078125 64.109375 15.125 69.15625 
Q 21.1875 74.21875 31.78125 74.21875 
Q 42.390625 74.21875 48.4375 69.15625 
Q 54.5 64.109375 54.5 55.328125 
Q 54.5 48.6875 50.5625 44.40625 
Q 46.625 40.140625 39.3125 38.8125 
z
" id="DejaVuSerif-56"/>
      </defs>
      <g transform="translate(402.436149 226.398594)scale(0.09 -0.09)">
       <use xlink:href="#DejaVuSerif-56"/>
       <use x="63.623047" xlink:href="#DejaVuSerif-48"/>
      </g>
     </g>
    </g>
    <g id="text_22">
     <!-- Iterations -->
     <g transform="translate(324.652328 239.108906)scale(0.09 -0.09)">
      <use xlink:href="#DejaVuSerif-73"/>
      <use x="39.501953" xlink:href="#DejaVuSerif-116"/>
      <use x="79.6875" xlink:href="#DejaVuSerif-101"/>
      <use x="138.867188" xlink:href="#DejaVuSerif-114"/>
      <use x="186.669922" xlink:href="#DejaVuSerif-97"/>
      <use x="246.289062" xlink:href="#DejaVuSerif-116"/>
      <use x="286.474609" xlink:href="#DejaVuSerif-105"/>
      <use x="318.457031" xlink:href="#DejaVuSerif-111"/>
      <use x="378.662109" xlink:href="#DejaVuSerif-110"/>
      <use x="443.066406" xlink:href="#DejaVuSerif-115"/>
     </g>
    </g>
   </g>
   <g id="matplotlib.axis_4">
    <g id="ytick_7">
     <g id="line2d_25">
      <g>
       <use style="stroke:#000000;stroke-width:0.8;" x="268.433561" xlink:href="#me3ddf606b3" y="198.438045"/>
      </g>
     </g>
     <g id="text_23">
      <!-- $\mathdefault{10^{-12}}$ -->
      <g transform="translate(236.323561 201.857342)scale(0.09 -0.09)">
       <use transform="translate(0 0.7125)" xlink:href="#DejaVuSerif-49"/>
       <use transform="translate(63.623047 0.7125)" xlink:href="#DejaVuSerif-48"/>
       <use transform="translate(128.154453 37.046875)scale(0.7)" xlink:href="#DejaVuSerif-8722"/>
       <use transform="translate(186.806797 37.046875)scale(0.7)" xlink:href="#DejaVuSerif-49"/>
       <use transform="translate(231.34293 37.046875)scale(0.7)" xlink:href="#DejaVuSerif-50"/>
      </g>
     </g>
    </g>
    <g id="ytick_8">
     <g id="line2d_26">
      <g>
       <use style="stroke:#000000;stroke-width:0.8;" x="268.433561" xlink:href="#me3ddf606b3" y="171.079886"/>
      </g>
     </g>
     <g id="text_24">
      <!-- $\mathdefault{10^{-10}}$ -->
      <g transform="translate(236.323561 174.499183)scale(0.09 -0.09)">
       <use transform="translate(0 0.7125)" xlink:href="#DejaVuSerif-49"/>
       <use transform="translate(63.623047 0.7125)" xlink:href="#DejaVuSerif-48"/>
       <use transform="translate(128.154453 37.046875)scale(0.7)" xlink:href="#DejaVuSerif-8722"/>
       <use transform="translate(186.806797 37.046875)scale(0.7)" xlink:href="#DejaVuSerif-49"/>
       <use transform="translate(231.34293 37.046875)scale(0.7)" xlink:href="#DejaVuSerif-48"/>
      </g>
     </g>
    </g>
    <g id="ytick_9">
     <g id="line2d_27">
      <g>
       <use style="stroke:#000000;stroke-width:0.8;" x="268.433561" xlink:href="#me3ddf606b3" y="143.721727"/>
      </g>
     </g>
     <g id="text_25">
      <!-- $\mathdefault{10^{-8}}$ -->
      <g transform="translate(240.373561 147.141024)scale(0.09 -0.09)">
       <use transform="translate(0 0.7125)" xlink:href="#DejaVuSerif-49"/>
       <use transform="translate(63.623047 0.7125)" xlink:href="#DejaVuSerif-48"/>
       <use transform="translate(128.154453 37.046875)scale(0.7)" xlink:href="#DejaVuSerif-8722"/>
       <use transform="translate(186.806797 37.046875)scale(0.7)" xlink:href="#DejaVuSerif-56"/>
      </g>
     </g>
    </g>
    <g id="ytick_10">
     <g id="line2d_28">
      <g>
       <use style="stroke:#000000;stroke-width:0.8;" x="268.433561" xlink:href="#me3ddf606b3" y="116.363568"/>
      </g>
     </g>
     <g id="text_26">
      <!-- $\mathdefault{10^{-6}}$ -->
      <g transform="translate(240.373561 119.782865)scale(0.09 -0.09)">
       <use transform="translate(0 0.7125)" xlink:href="#DejaVuSerif-49"/>
       <use transform="translate(63.623047 0.7125)" xlink:href="#DejaVuSerif-48"/>
       <use transform="translate(128.154453 37.046875)scale(0.7)" xlink:href="#DejaVuSerif-8722"/>
       <use transform="translate(186.806797 37.046875)scale(0.7)" xlink:href="#DejaVuSerif-54"/>
      </g>
     </g>
    </g>
    <g id="ytick_11">
     <g id="line2d_29">
      <g>
       <use style="stroke:#000000;stroke-width:0.8;" x="268.433561" xlink:href="#me3ddf606b3" y="89.005409"/>
      </g>
     </g>
     <g id="text_27">
      <!-- $\mathdefault{10^{-4}}$ -->
      <g transform="translate(240.373561 92.424706)scale(0.09 -0.09)">
       <use transform="translate(0 0.7125)" xlink:href="#DejaVuSerif-49"/>
       <use transform="translate(63.623047 0.7125)" xlink:href="#DejaVuSerif-48"/>
       <use transform="translate(128.154453 37.046875)scale(0.7)" xlink:href="#DejaVuSerif-8722"/>
       <use transform="translate(186.806797 37.046875)scale(0.7)" xlink:href="#DejaVuSerif-52"/>
      </g>
     </g>
    </g>
    <g id="ytick_12">
     <g id="line2d_30">
      <g>
       <use style="stroke:#000000;stroke-width:0.8;" x="268.433561" xlink:href="#me3ddf606b3" y="61.64725"/>
      </g>
     </g>
     <g id="text_28">
      <!-- $\mathdefault{10^{-2}}$ -->
      <g transform="translate(240.373561 65.066547)scale(0.09 -0.09)">
       <use transform="translate(0 0.7125)" xlink:href="#DejaVuSerif-49"/>
       <use transform="translate(63.623047 0.7125)" xlink:href="#DejaVuSerif-48"/>
       <use transform="translate(128.154453 37.046875)scale(0.7)" xlink:href="#DejaVuSerif-8722"/>
       <use transform="translate(186.806797 37.046875)scale(0.7)" xlink:href="#DejaVuSerif-50"/>
      </g>
     </g>
    </g>
    <g id="ytick_13">
     <g id="line2d_31">
      <g>
       <use style="stroke:#000000;stroke-width:0.8;" x="268.433561" xlink:href="#me3ddf606b3" y="34.289091"/>
      </g>
     </g>
     <g id="text_29">
      <!-- $\mathdefault{10^{0}}$ -->
      <g transform="translate(245.593561 37.708388)scale(0.09 -0.09)">
       <use transform="translate(0 0.7125)" xlink:href="#DejaVuSerif-49"/>
       <use transform="translate(63.623047 0.7125)" xlink:href="#DejaVuSerif-48"/>
       <use transform="translate(128.154453 37.046875)scale(0.7)" xlink:href="#DejaVuSerif-48"/>
      </g>
     </g>
    </g>
    <g id="text_30">
     <!-- Residual norm -->
     <g transform="translate(230.451843 152.337266)rotate(-90)scale(0.09 -0.09)">
      <use xlink:href="#DejaVuSerif-82"/>
      <use x="75.292969" xlink:href="#DejaVuSerif-101"/>
      <use x="134.472656" xlink:href="#DejaVuSerif-115"/>
      <use x="185.791016" xlink:href="#DejaVuSerif-105"/>
      <use x="217.773438" xlink:href="#DejaVuSerif-100"/>
      <use x="281.787109" xlink:href="#DejaVuSerif-117"/>
      <use x="346.191406" xlink:href="#DejaVuSerif-97"/>
      <use x="405.810547" xlink:href="#DejaVuSerif-108"/>
      <use x="437.792969" xlink:href="#DejaVuSerif-32"/>
      <use x="469.580078" xlink:href="#DejaVuSerif-110"/>
      <use x="533.984375" xlink:href="#DejaVuSerif-111"/>
      <use x="594.189453" xlink:href="#DejaVuSerif-114"/>
      <use x="641.992188" xlink:href="#DejaVuSerif-109"/>
     </g>
    </g>
   </g>
   <g id="line2d_32">
    <path clip-path="url(#p3af1b677aa)" d="M 275.566865 34.289091 
L 277.24529 34.289091 
L 278.923714 40.394733 
L 280.602139 50.147859 
L 282.280563 49.311823 
L 283.958988 48.313516 
L 285.637412 49.041462 
L 287.315837 50.383269 
L 288.994261 51.998774 
L 290.672686 53.743636 
L 292.35111 55.545226 
L 294.029535 57.368019 
L 295.707959 59.198344 
L 297.386384 61.034372 
L 299.064808 62.879159 
L 300.743233 64.736493 
L 302.421657 66.60917 
L 304.100081 68.499004 
L 305.778506 70.407572 
L 307.45693 72.336758 
L 309.135355 74.288661 
L 310.813779 76.265013 
L 312.492204 78.266496 
L 314.170628 80.292314 
L 315.849053 82.340156 
L 317.527477 84.406517 
L 319.205902 86.487239 
L 320.884326 88.57812 
L 322.562751 90.675442 
L 324.241175 92.776342 
L 325.9196 94.878964 
L 327.598024 96.982434 
L 329.276449 99.086677 
L 330.954873 101.192171 
L 332.633298 103.29969 
L 334.311722 105.410087 
L 335.990147 107.524132 
L 337.668571 109.642423 
L 339.346996 111.765353 
L 341.02542 113.893114 
L 342.703844 116.025734 
L 344.382269 118.163117 
L 346.060693 120.305096 
L 347.739118 122.451469 
L 349.417542 124.602032 
L 351.095967 126.756606 
L 352.774391 128.915048 
L 354.452816 131.077256 
L 356.13124 133.243175 
L 357.809665 135.412788 
L 359.488089 137.586108 
L 361.166514 139.763179 
L 362.844938 141.944058 
L 364.523363 144.128812 
L 366.201787 146.317514 
L 367.880212 148.510232 
L 369.558636 150.707042 
L 371.237061 152.908002 
L 372.915485 155.113185 
L 374.59391 157.32264 
L 376.272334 159.536444 
L 377.950759 161.754674 
L 379.629183 163.977369 
L 381.307607 166.204654 
L 382.986032 168.436632 
L 384.664456 170.673322 
L 386.342881 172.915034 
L 388.021305 175.161653 
L 389.69973 177.413544 
L 391.378154 179.670567 
L 393.056579 181.933349 
L 394.735003 184.201588 
L 396.413428 186.475213 
L 398.091852 188.757289 
L 399.770277 191.041979 
L 401.448701 193.340342 
L 403.127126 195.640053 
L 404.80555 197.944434 
L 406.483975 200.259495 
L 408.162399 202.580957 
" style="fill:none;stroke:#000000;stroke-linecap:square;stroke-width:0.9;"/>
   </g>
   <g id="line2d_33">
    <path clip-path="url(#p3af1b677aa)" d="M 275.566865 34.289091 
L 277.24529 34.289091 
L 278.923714 37.685003 
L 280.602139 43.085028 
L 282.280563 47.783825 
L 283.958988 45.50542 
L 285.637412 46.664309 
L 287.315837 48.735537 
L 288.994261 50.912438 
L 290.672686 53.022072 
L 292.35111 55.04474 
L 294.029535 56.994354 
L 295.707959 58.892267 
L 297.386384 60.759919 
L 299.064808 62.614995 
L 300.743233 64.470494 
L 302.421657 66.335136 
L 304.100081 68.21386 
L 305.778506 70.110912 
L 307.45693 72.033045 
L 309.135355 73.977089 
L 310.813779 75.947217 
L 312.492204 77.944985 
L 314.170628 79.96982 
L 315.849053 82.019741 
L 317.527477 84.166099 
L 319.205902 86.285853 
L 320.884326 88.40523 
L 322.562751 90.529461 
L 324.241175 92.661696 
L 325.9196 94.802343 
L 327.598024 96.951099 
L 329.276449 99.106832 
L 330.954873 101.268227 
L 332.633298 103.433281 
L 334.311722 105.601327 
L 335.990147 107.770234 
L 337.668571 109.93854 
L 339.346996 112.104655 
L 341.02542 114.268203 
L 342.703844 116.426723 
L 344.382269 118.576601 
L 346.060693 120.716917 
L 347.739118 122.846956 
L 349.417542 124.96627 
L 351.095967 127.074905 
L 352.774391 129.173384 
L 354.452816 131.262585 
L 356.13124 133.343588 
L 357.809665 135.417508 
L 359.488089 137.485365 
L 361.166514 139.548001 
L 362.844938 141.606048 
L 364.523363 143.65994 
L 366.201787 145.709955 
L 367.880212 147.75627 
L 369.558636 149.798994 
L 371.237061 151.838227 
L 372.915485 153.874062 
L 374.59391 155.906616 
L 376.272334 157.936026 
L 377.950759 159.96243 
L 379.629183 161.986007 
L 381.307607 164.006922 
L 382.986032 166.025347 
L 384.664456 168.041454 
L 386.342881 170.055429 
L 388.021305 172.067441 
L 389.69973 174.077542 
L 391.378154 176.086035 
L 393.056579 178.092834 
L 394.735003 180.098527 
L 396.413428 182.10244 
L 398.091852 184.10489 
L 399.770277 186.107359 
L 401.448701 188.106331 
L 403.127126 190.10621 
L 404.80555 192.107083 
L 406.483975 194.106101 
L 408.162399 196.097837 
L 409.840824 198.08947 
L 411.519248 200.091833 
L 413.197673 202.091518 
L 414.876097 204.070909 
" style="fill:none;stroke:#0000ff;stroke-linecap:square;stroke-width:0.9;"/>
   </g>
   <g id="line2d_34">
    <path clip-path="url(#p3af1b677aa)" d="M 275.566865 34.289091 
L 277.24529 34.289091 
L 278.923714 35.913451 
L 280.602139 39.592278 
L 282.280563 45.696946 
L 283.958988 46.682888 
L 285.637412 45.034581 
L 287.315837 45.3174 
L 288.994261 47.900799 
L 290.672686 51.189297 
L 292.35111 53.981848 
L 294.029535 56.330007 
L 295.707959 58.426611 
L 297.386384 60.388738 
L 299.064808 62.283698 
L 300.743233 64.149262 
L 302.421657 66.008713 
L 304.100081 67.87449 
L 305.778506 69.755143 
L 307.45693 71.66455 
L 309.135355 73.596679 
L 310.813779 75.555335 
L 312.492204 77.543239 
L 314.170628 79.55954 
L 315.849053 81.602117 
L 317.527477 83.779172 
L 319.205902 85.945781 
L 320.884326 88.082807 
L 322.562751 90.220826 
L 324.241175 92.368478 
L 325.9196 94.53106 
L 327.598024 96.710478 
L 329.276449 98.905102 
L 330.954873 101.112624 
L 332.633298 103.329328 
L 334.311722 105.54987 
L 335.990147 107.772609 
L 337.668571 109.991896 
L 339.346996 112.20366 
L 341.02542 114.403528 
L 342.703844 116.587034 
L 344.382269 118.750003 
L 346.060693 120.889027 
L 347.739118 123.001905 
L 349.417542 125.087906 
L 351.095967 127.147785 
L 352.774391 129.183541 
L 354.452816 131.198015 
L 356.13124 133.194426 
L 357.809665 135.175957 
L 359.488089 137.145453 
L 361.166514 139.105259 
L 362.844938 141.057172 
L 364.523363 143.002494 
L 366.201787 144.942126 
L 367.880212 146.876694 
L 369.558636 148.806646 
L 371.237061 150.73234 
L 372.915485 152.654105 
L 374.59391 154.572275 
L 376.272334 156.487182 
L 377.950759 158.399151 
L 379.629183 160.308551 
L 381.307607 162.215681 
L 382.986032 164.120859 
L 384.664456 166.024385 
L 386.342881 167.926424 
L 388.021305 169.827201 
L 389.69973 171.72704 
L 391.378154 173.625844 
L 393.056579 175.523988 
L 394.735003 177.421102 
L 396.413428 179.317886 
L 398.091852 181.214391 
L 399.770277 183.110373 
L 401.448701 185.005772 
L 403.127126 186.901403 
L 404.80555 188.794827 
L 406.483975 190.688396 
L 408.162399 192.586949 
L 409.840824 194.478246 
L 411.519248 196.372844 
L 413.197673 198.262562 
L 414.876097 200.158372 
L 416.554521 202.058048 
L 418.232946 203.945793 
" style="fill:none;stroke:#ff0000;stroke-linecap:square;stroke-width:0.9;"/>
   </g>
   <g id="patch_8">
    <path d="M 268.433561 212.56 
L 268.433561 25.8 
" style="fill:none;stroke:#000000;stroke-linecap:square;stroke-linejoin:miter;stroke-width:0.8;"/>
   </g>
   <g id="patch_9">
    <path d="M 425.36625 212.56 
L 425.36625 25.8 
" style="fill:none;stroke:#000000;stroke-linecap:square;stroke-linejoin:miter;stroke-width:0.8;"/>
   </g>
   <g id="patch_10">
    <path d="M 268.433561 212.56 
L 425.36625 212.56 
" style="fill:none;stroke:#000000;stroke-linecap:square;stroke-linejoin:miter;stroke-width:0.8;"/>
   </g>
   <g id="patch_11">
    <path d="M 268.433561 25.8 
L 425.36625 25.8 
" style="fill:none;stroke:#000000;stroke-linecap:square;stroke-linejoin:miter;stroke-width:0.8;"/>
   </g>
   <g id="text_31">
    <!-- Effect of k2 and k4 -->
    <defs>
     <path d="M 28.609375 0 
L 3.421875 0 
L 3.421875 5.171875 
L 11.53125 5.171875 
L 11.53125 70.796875 
L 2.875 70.796875 
L 2.875 75.984375 
L 20.515625 75.984375 
L 20.515625 26.515625 
L 42.390625 46.6875 
L 34.90625 46.6875 
L 34.90625 51.90625 
L 58.40625 51.90625 
L 58.40625 46.6875 
L 49.515625 46.6875 
L 34.078125 32.421875 
L 53.8125 5.171875 
L 61.28125 5.171875 
L 61.28125 0 
L 35.6875 0 
L 35.6875 5.171875 
L 43.109375 5.171875 
L 27.59375 26.515625 
L 20.515625 19.921875 
L 20.515625 5.171875 
L 28.609375 5.171875 
z
" id="DejaVuSerif-107"/>
    </defs>
    <g transform="translate(294.885249 19.8)scale(0.108 -0.108)">
     <use xlink:href="#DejaVuSerif-69"/>
     <use x="72.998047" xlink:href="#DejaVuSerif-102"/>
     <use x="110.009766" xlink:href="#DejaVuSerif-102"/>
     <use x="147.021484" xlink:href="#DejaVuSerif-101"/>
     <use x="206.201172" xlink:href="#DejaVuSerif-99"/>
     <use x="262.207031" xlink:href="#DejaVuSerif-116"/>
     <use x="302.392578" xlink:href="#DejaVuSerif-32"/>
     <use x="334.179688" xlink:href="#DejaVuSerif-111"/>
     <use x="394.384766" xlink:href="#DejaVuSerif-102"/>
     <use x="431.396484" xlink:href="#DejaVuSerif-32"/>
     <use x="463.183594" xlink:href="#DejaVuSerif-107"/>
     <use x="523.779297" xlink:href="#DejaVuSerif-50"/>
     <use x="587.402344" xlink:href="#DejaVuSerif-32"/>
     <use x="619.189453" xlink:href="#DejaVuSerif-97"/>
     <use x="678.808594" xlink:href="#DejaVuSerif-110"/>
     <use x="743.212891" xlink:href="#DejaVuSerif-100"/>
     <use x="807.226562" xlink:href="#DejaVuSerif-32"/>
     <use x="839.013672" xlink:href="#DejaVuSerif-107"/>
     <use x="899.609375" xlink:href="#DejaVuSerif-52"/>
    </g>
   </g>
   <g id="legend_2">
    <g id="line2d_35">
     <path d="M 351.92625 37.588594 
L 369.92625 37.588594 
" style="fill:none;stroke:#000000;stroke-linecap:square;stroke-width:0.9;"/>
    </g>
    <g id="line2d_36"/>
    <g id="text_32">
     <!-- $k_2 = 0$ -->
     <defs>
      <path d="M 18.3125 75.984375 
L 27.296875 75.984375 
L 18.703125 31.6875 
L 49.515625 54.6875 
L 61.1875 54.6875 
L 26.8125 28.515625 
L 51.90625 0 
L 41.015625 0 
L 17.671875 26.703125 
L 12.5 0 
L 3.515625 0 
z
" id="DejaVuSans-Oblique-107"/>
     </defs>
     <g transform="translate(377.12625 40.738594)scale(0.09 -0.09)">
      <use transform="translate(0 0.015625)" xlink:href="#DejaVuSans-Oblique-107"/>
      <use transform="translate(57.910156 -16.390625)scale(0.7)" xlink:href="#DejaVuSans-50"/>
      <use transform="translate(124.663086 0.015625)" xlink:href="#DejaVuSans-61"/>
      <use transform="translate(227.93457 0.015625)" xlink:href="#DejaVuSans-48"/>
     </g>
    </g>
    <g id="line2d_37">
     <path d="M 351.92625 50.798906 
L 369.92625 50.798906 
" style="fill:none;stroke:#0000ff;stroke-linecap:square;stroke-width:0.9;"/>
    </g>
    <g id="line2d_38"/>
    <g id="text_33">
     <!-- $k_2 = 0.25$ -->
     <defs>
      <path d="M 10.6875 12.40625 
L 21 12.40625 
L 21 0 
L 10.6875 0 
z
" id="DejaVuSans-46"/>
      <path d="M 10.796875 72.90625 
L 49.515625 72.90625 
L 49.515625 64.59375 
L 19.828125 64.59375 
L 19.828125 46.734375 
Q 21.96875 47.46875 24.109375 47.828125 
Q 26.265625 48.1875 28.421875 48.1875 
Q 40.625 48.1875 47.75 41.5 
Q 54.890625 34.8125 54.890625 23.390625 
Q 54.890625 11.625 47.5625 5.09375 
Q 40.234375 -1.421875 26.90625 -1.421875 
Q 22.3125 -1.421875 17.546875 -0.640625 
Q 12.796875 0.140625 7.71875 1.703125 
L 7.71875 11.625 
Q 12.109375 9.234375 16.796875 8.0625 
Q 21.484375 6.890625 26.703125 6.890625 
Q 35.15625 6.890625 40.078125 11.328125 
Q 45.015625 15.765625 45.015625 23.390625 
Q 45.015625 31 40.078125 35.4375 
Q 35.15625 39.890625 26.703125 39.890625 
Q 22.75 39.890625 18.8125 39.015625 
Q 14.890625 38.140625 10.796875 36.28125 
z
" id="DejaVuSans-53"/>
     </defs>
     <g transform="translate(377.12625 53.948906)scale(0.09 -0.09)">
      <use transform="translate(0 0.015625)" xlink:href="#DejaVuSans-Oblique-107"/>
      <use transform="translate(57.910156 -16.390625)scale(0.7)" xlink:href="#DejaVuSans-50"/>
      <use transform="translate(124.663086 0.015625)" xlink:href="#DejaVuSans-61"/>
      <use transform="translate(227.93457 0.015625)" xlink:href="#DejaVuSans-48"/>
      <use transform="translate(291.557617 0.015625)" xlink:href="#DejaVuSans-46"/>
      <use transform="translate(317.844727 0.015625)" xlink:href="#DejaVuSans-50"/>
      <use transform="translate(381.467773 0.015625)" xlink:href="#DejaVuSans-53"/>
     </g>
    </g>
    <g id="line2d_39">
     <path d="M 351.92625 64.009219 
L 369.92625 64.009219 
" style="fill:none;stroke:#ff0000;stroke-linecap:square;stroke-width:0.9;"/>
    </g>
    <g id="line2d_40"/>
    <g id="text_34">
     <!-- $k_2 = 0.5$ -->
     <g transform="translate(377.12625 67.159219)scale(0.09 -0.09)">
      <use transform="translate(0 0.015625)" xlink:href="#DejaVuSans-Oblique-107"/>
      <use transform="translate(57.910156 -16.390625)scale(0.7)" xlink:href="#DejaVuSans-50"/>
      <use transform="translate(124.663086 0.015625)" xlink:href="#DejaVuSans-61"/>
      <use transform="translate(227.93457 0.015625)" xlink:href="#DejaVuSans-48"/>
      <use transform="translate(291.557617 0.015625)" xlink:href="#DejaVuSans-46"/>
      <use transform="translate(323.344727 0.015625)" xlink:href="#DejaVuSans-53"/>
     </g>
    </g>
   </g>
  </g>
  <g id="axes_3">
   <g id="patch_12">
    <path d="M 481.347311 212.56 
L 638.28 212.56 
L 638.28 25.8 
L 481.347311 25.8 
z
" style="fill:#ffffff;"/>
   </g>
   <g id="matplotlib.axis_5">
    <g id="xtick_10">
     <g id="line2d_41">
      <g>
       <use style="stroke:#000000;stroke-width:0.8;" x="487.571914" xlink:href="#m03efcaef3c" y="212.56"/>
      </g>
     </g>
     <g id="text_35">
      <!-- 0 -->
      <g transform="translate(484.708789 226.398594)scale(0.09 -0.09)">
       <use xlink:href="#DejaVuSerif-48"/>
      </g>
     </g>
    </g>
    <g id="xtick_11">
     <g id="line2d_42">
      <g>
       <use style="stroke:#000000;stroke-width:0.8;" x="533.006972" xlink:href="#m03efcaef3c" y="212.56"/>
      </g>
     </g>
     <g id="text_36">
      <!-- 50 -->
      <g transform="translate(527.280722 226.398594)scale(0.09 -0.09)">
       <use xlink:href="#DejaVuSerif-53"/>
       <use x="63.623047" xlink:href="#DejaVuSerif-48"/>
      </g>
     </g>
    </g>
    <g id="xtick_12">
     <g id="line2d_43">
      <g>
       <use style="stroke:#000000;stroke-width:0.8;" x="578.442029" xlink:href="#m03efcaef3c" y="212.56"/>
      </g>
     </g>
     <g id="text_37">
      <!-- 100 -->
      <g transform="translate(569.852654 226.398594)scale(0.09 -0.09)">
       <use xlink:href="#DejaVuSerif-49"/>
       <use x="63.623047" xlink:href="#DejaVuSerif-48"/>
       <use x="127.246094" xlink:href="#DejaVuSerif-48"/>
      </g>
     </g>
    </g>
    <g id="xtick_13">
     <g id="line2d_44">
      <g>
       <use style="stroke:#000000;stroke-width:0.8;" x="623.877087" xlink:href="#m03efcaef3c" y="212.56"/>
      </g>
     </g>
     <g id="text_38">
      <!-- 150 -->
      <g transform="translate(615.287712 226.398594)scale(0.09 -0.09)">
       <use xlink:href="#DejaVuSerif-49"/>
       <use x="63.623047" xlink:href="#DejaVuSerif-53"/>
       <use x="127.246094" xlink:href="#DejaVuSerif-48"/>
      </g>
     </g>
    </g>
    <g id="text_39">
     <!-- Iterations -->
     <g transform="translate(537.566078 239.108906)scale(0.09 -0.09)">
      <use xlink:href="#DejaVuSerif-73"/>
      <use x="39.501953" xlink:href="#DejaVuSerif-116"/>
      <use x="79.6875" xlink:href="#DejaVuSerif-101"/>
      <use x="138.867188" xlink:href="#DejaVuSerif-114"/>
      <use x="186.669922" xlink:href="#DejaVuSerif-97"/>
      <use x="246.289062" xlink:href="#DejaVuSerif-116"/>
      <use x="286.474609" xlink:href="#DejaVuSerif-105"/>
      <use x="318.457031" xlink:href="#DejaVuSerif-111"/>
      <use x="378.662109" xlink:href="#DejaVuSerif-110"/>
      <use x="443.066406" xlink:href="#DejaVuSerif-115"/>
     </g>
    </g>
   </g>
   <g id="matplotlib.axis_6">
    <g id="ytick_14">
     <g id="line2d_45">
      <g>
       <use style="stroke:#000000;stroke-width:0.8;" x="481.347311" xlink:href="#me3ddf606b3" y="196.250584"/>
      </g>
     </g>
     <g id="text_40">
      <!-- $\mathdefault{10^{-12}}$ -->
      <g transform="translate(449.237311 199.669881)scale(0.09 -0.09)">
       <use transform="translate(0 0.7125)" xlink:href="#DejaVuSerif-49"/>
       <use transform="translate(63.623047 0.7125)" xlink:href="#DejaVuSerif-48"/>
       <use transform="translate(128.154453 37.046875)scale(0.7)" xlink:href="#DejaVuSerif-8722"/>
       <use transform="translate(186.806797 37.046875)scale(0.7)" xlink:href="#DejaVuSerif-49"/>
       <use transform="translate(231.34293 37.046875)scale(0.7)" xlink:href="#DejaVuSerif-50"/>
      </g>
     </g>
    </g>
    <g id="ytick_15">
     <g id="line2d_46">
      <g>
       <use style="stroke:#000000;stroke-width:0.8;" x="481.347311" xlink:href="#me3ddf606b3" y="169.257002"/>
      </g>
     </g>
     <g id="text_41">
      <!-- $\mathdefault{10^{-10}}$ -->
      <g transform="translate(449.237311 172.676299)scale(0.09 -0.09)">
       <use transform="translate(0 0.7125)" xlink:href="#DejaVuSerif-49"/>
       <use transform="translate(63.623047 0.7125)" xlink:href="#DejaVuSerif-48"/>
       <use transform="translate(128.154453 37.046875)scale(0.7)" xlink:href="#DejaVuSerif-8722"/>
       <use transform="translate(186.806797 37.046875)scale(0.7)" xlink:href="#DejaVuSerif-49"/>
       <use transform="translate(231.34293 37.046875)scale(0.7)" xlink:href="#DejaVuSerif-48"/>
      </g>
     </g>
    </g>
    <g id="ytick_16">
     <g id="line2d_47">
      <g>
       <use style="stroke:#000000;stroke-width:0.8;" x="481.347311" xlink:href="#me3ddf606b3" y="142.26342"/>
      </g>
     </g>
     <g id="text_42">
      <!-- $\mathdefault{10^{-8}}$ -->
      <g transform="translate(453.287311 145.682717)scale(0.09 -0.09)">
       <use transform="translate(0 0.7125)" xlink:href="#DejaVuSerif-49"/>
       <use transform="translate(63.623047 0.7125)" xlink:href="#DejaVuSerif-48"/>
       <use transform="translate(128.154453 37.046875)scale(0.7)" xlink:href="#DejaVuSerif-8722"/>
       <use transform="translate(186.806797 37.046875)scale(0.7)" xlink:href="#DejaVuSerif-56"/>
      </g>
     </g>
    </g>
    <g id="ytick_17">
     <g id="line2d_48">
      <g>
       <use style="stroke:#000000;stroke-width:0.8;" x="481.347311" xlink:href="#me3ddf606b3" y="115.269837"/>
      </g>
     </g>
     <g id="text_43">
      <!-- $\mathdefault{10^{-6}}$ -->
      <g transform="translate(453.287311 118.689134)scale(0.09 -0.09)">
       <use transform="translate(0 0.7125)" xlink:href="#DejaVuSerif-49"/>
       <use transform="translate(63.623047 0.7125)" xlink:href="#DejaVuSerif-48"/>
       <use transform="translate(128.154453 37.046875)scale(0.7)" xlink:href="#DejaVuSerif-8722"/>
       <use transform="translate(186.806797 37.046875)scale(0.7)" xlink:href="#DejaVuSerif-54"/>
      </g>
     </g>
    </g>
    <g id="ytick_18">
     <g id="line2d_49">
      <g>
       <use style="stroke:#000000;stroke-width:0.8;" x="481.347311" xlink:href="#me3ddf606b3" y="88.276255"/>
      </g>
     </g>
     <g id="text_44">
      <!-- $\mathdefault{10^{-4}}$ -->
      <g transform="translate(453.287311 91.695552)scale(0.09 -0.09)">
       <use transform="translate(0 0.7125)" xlink:href="#DejaVuSerif-49"/>
       <use transform="translate(63.623047 0.7125)" xlink:href="#DejaVuSerif-48"/>
       <use transform="translate(128.154453 37.046875)scale(0.7)" xlink:href="#DejaVuSerif-8722"/>
       <use transform="translate(186.806797 37.046875)scale(0.7)" xlink:href="#DejaVuSerif-52"/>
      </g>
     </g>
    </g>
    <g id="ytick_19">
     <g id="line2d_50">
      <g>
       <use style="stroke:#000000;stroke-width:0.8;" x="481.347311" xlink:href="#me3ddf606b3" y="61.282673"/>
      </g>
     </g>
     <g id="text_45">
      <!-- $\mathdefault{10^{-2}}$ -->
      <g transform="translate(453.287311 64.70197)scale(0.09 -0.09)">
       <use transform="translate(0 0.7125)" xlink:href="#DejaVuSerif-49"/>
       <use transform="translate(63.623047 0.7125)" xlink:href="#DejaVuSerif-48"/>
       <use transform="translate(128.154453 37.046875)scale(0.7)" xlink:href="#DejaVuSerif-8722"/>
       <use transform="translate(186.806797 37.046875)scale(0.7)" xlink:href="#DejaVuSerif-50"/>
      </g>
     </g>
    </g>
    <g id="ytick_20">
     <g id="line2d_51">
      <g>
       <use style="stroke:#000000;stroke-width:0.8;" x="481.347311" xlink:href="#me3ddf606b3" y="34.289091"/>
      </g>
     </g>
     <g id="text_46">
      <!-- $\mathdefault{10^{0}}$ -->
      <g transform="translate(458.507311 37.708388)scale(0.09 -0.09)">
       <use transform="translate(0 0.7125)" xlink:href="#DejaVuSerif-49"/>
       <use transform="translate(63.623047 0.7125)" xlink:href="#DejaVuSerif-48"/>
       <use transform="translate(128.154453 37.046875)scale(0.7)" xlink:href="#DejaVuSerif-48"/>
      </g>
     </g>
    </g>
    <g id="text_47">
     <!-- Residual norm -->
     <g transform="translate(443.365593 152.337266)rotate(-90)scale(0.09 -0.09)">
      <use xlink:href="#DejaVuSerif-82"/>
      <use x="75.292969" xlink:href="#DejaVuSerif-101"/>
      <use x="134.472656" xlink:href="#DejaVuSerif-115"/>
      <use x="185.791016" xlink:href="#DejaVuSerif-105"/>
      <use x="217.773438" xlink:href="#DejaVuSerif-100"/>
      <use x="281.787109" xlink:href="#DejaVuSerif-117"/>
      <use x="346.191406" xlink:href="#DejaVuSerif-97"/>
      <use x="405.810547" xlink:href="#DejaVuSerif-108"/>
      <use x="437.792969" xlink:href="#DejaVuSerif-32"/>
      <use x="469.580078" xlink:href="#DejaVuSerif-110"/>
      <use x="533.984375" xlink:href="#DejaVuSerif-111"/>
      <use x="594.189453" xlink:href="#DejaVuSerif-114"/>
      <use x="641.992188" xlink:href="#DejaVuSerif-109"/>
     </g>
    </g>
   </g>
   <g id="line2d_52">
    <path clip-path="url(#pea600bd74a)" d="M 488.480615 34.289091 
L 489.389317 34.289091 
L 490.298018 44.188636 
L 491.206719 51.393859 
L 492.11542 49.895071 
L 493.024121 51.530053 
L 493.932822 53.951442 
L 494.841523 56.644682 
L 495.750225 59.468518 
L 496.658926 62.384185 
L 497.567627 65.379557 
L 498.476328 68.448341 
L 499.385029 71.586438 
L 500.29373 74.792528 
L 501.202431 78.068516 
L 502.111133 81.419088 
L 503.019834 84.851017 
L 503.928535 88.372888 
L 504.837236 91.995552 
L 505.745937 95.733386 
L 506.654638 99.606481 
L 507.56334 103.64415 
L 508.472041 107.890467 
L 509.380742 112.412092 
L 510.289443 117.299912 
L 511.198144 122.577144 
L 512.106845 127.469616 
L 513.015546 129.917664 
L 513.924248 131.046573 
L 514.832949 132.417615 
L 515.74165 134.188937 
L 516.650351 136.272233 
L 517.559052 138.588465 
L 518.467753 141.084126 
L 519.376454 143.723757 
L 520.285156 146.48349 
L 521.193857 149.347009 
L 522.102558 152.30311 
L 523.011259 155.344247 
L 523.91996 158.465645 
L 524.828661 161.664779 
L 525.737363 164.941146 
L 526.646064 168.296182 
L 527.554765 171.733577 
L 528.463466 175.259129 
L 529.372167 178.882064 
L 530.280868 182.61637 
L 531.189569 186.480795 
L 532.098271 190.502227 
L 533.006972 194.729153 
L 533.915673 199.229716 
L 534.824374 204.070909 
" style="fill:none;stroke:#000000;stroke-linecap:square;stroke-width:0.9;"/>
   </g>
   <g id="line2d_53">
    <path clip-path="url(#pea600bd74a)" d="M 488.480615 34.289091 
L 489.389317 34.289091 
L 490.298018 40.313369 
L 491.206719 49.936524 
L 492.11542 49.111629 
L 493.024121 48.126626 
L 493.932822 48.844871 
L 494.841523 50.168797 
L 495.750225 51.762773 
L 496.658926 53.484383 
L 497.567627 55.261965 
L 498.476328 57.060467 
L 499.385029 58.866401 
L 500.29373 60.677962 
L 501.202431 62.498166 
L 502.111133 64.330749 
L 503.019834 66.17847 
L 503.928535 68.04312 
L 504.837236 69.926255 
L 505.745937 71.829732 
L 506.654638 73.755624 
L 507.56334 75.705638 
L 508.472041 77.68045 
L 509.380742 79.679271 
L 510.289443 81.699824 
L 511.198144 83.738648 
L 512.106845 85.791643 
L 513.015546 87.85466 
L 513.924248 89.924034 
L 514.832949 91.996936 
L 515.74165 94.071539 
L 516.650351 96.146978 
L 517.559052 98.22318 
L 518.467753 100.300615 
L 519.376454 102.38005 
L 520.285156 104.462323 
L 521.193857 106.548196 
L 522.102558 108.638259 
L 523.011259 110.732899 
L 523.91996 112.832305 
L 524.828661 114.936505 
L 525.737363 117.045406 
L 526.646064 119.15884 
L 527.554765 121.27661 
L 528.463466 123.398515 
L 529.372167 125.524377 
L 530.280868 127.654055 
L 531.189569 129.78745 
L 532.098271 131.924506 
L 533.006972 134.065206 
L 533.915673 136.209565 
L 534.824374 138.357624 
L 535.733075 140.50944 
L 536.641776 142.66508 
L 537.550477 144.824614 
L 538.459179 146.988112 
L 539.36788 149.155648 
L 540.276581 151.327277 
L 541.185282 153.503074 
L 542.093983 155.683085 
L 543.002684 157.867388 
L 543.911386 160.056058 
L 544.820087 162.249134 
L 545.728788 164.446737 
L 546.637489 166.648972 
L 547.54619 168.855856 
L 548.454891 171.067694 
L 549.363592 173.284375 
L 550.272294 175.506257 
L 551.180995 177.733203 
L 552.089696 179.965831 
L 552.998397 182.203843 
L 553.907098 184.447169 
L 554.815799 186.698835 
L 555.7245 188.953078 
L 556.633202 191.220814 
L 557.541903 193.489878 
L 558.450604 195.763551 
L 559.359305 198.047761 
L 560.268006 200.338287 
" style="fill:none;stroke:#0000ff;stroke-linecap:square;stroke-width:0.9;"/>
   </g>
   <g id="line2d_54">
    <path clip-path="url(#pea600bd74a)" d="M 488.480615 34.289091 
L 489.389317 34.289091 
L 490.298018 37.476164 
L 491.206719 41.932564 
L 492.11542 47.919104 
L 493.024121 48.259988 
L 493.932822 46.773608 
L 494.841523 46.53526 
L 495.750225 46.873187 
L 496.658926 47.488361 
L 498.476328 49.17722 
L 500.29373 51.246703 
L 506.654638 58.95067 
L 512.106845 64.74711 
L 516.650351 69.766287 
L 520.285156 74.064657 
L 526.646064 82.050356 
L 531.189569 87.587189 
L 538.459179 95.971565 
L 561.176707 121.864211 
L 631.146696 200.943751 
L 631.146696 200.943751 
" style="fill:none;stroke:#ff0000;stroke-linecap:square;stroke-width:0.9;"/>
   </g>
   <g id="patch_13">
    <path d="M 481.347311 212.56 
L 481.347311 25.8 
" style="fill:none;stroke:#000000;stroke-linecap:square;stroke-linejoin:miter;stroke-width:0.8;"/>
   </g>
   <g id="patch_14">
    <path d="M 638.28 212.56 
L 638.28 25.8 
" style="fill:none;stroke:#000000;stroke-linecap:square;stroke-linejoin:miter;stroke-width:0.8;"/>
   </g>
   <g id="patch_15">
    <path d="M 481.347311 212.56 
L 638.28 212.56 
" style="fill:none;stroke:#000000;stroke-linecap:square;stroke-linejoin:miter;stroke-width:0.8;"/>
   </g>
   <g id="patch_16">
    <path d="M 481.347311 25.8 
L 638.28 25.8 
" style="fill:none;stroke:#000000;stroke-linecap:square;stroke-linejoin:miter;stroke-width:0.8;"/>
   </g>
   <g id="text_48">
    <!-- Effect of mesh size -->
    <defs>
     <path d="M 4.109375 0 
L 4.109375 5.171875 
L 12.203125 5.171875 
L 12.203125 70.796875 
L 3.609375 70.796875 
L 3.609375 75.984375 
L 21.1875 75.984375 
L 21.1875 42.671875 
Q 23.6875 47.953125 27.65625 50.640625 
Q 31.640625 53.328125 36.921875 53.328125 
Q 45.515625 53.328125 49.5625 48.390625 
Q 53.609375 43.453125 53.609375 33.015625 
L 53.609375 5.171875 
L 61.625 5.171875 
L 61.625 0 
L 36.8125 0 
L 36.8125 5.171875 
L 44.578125 5.171875 
L 44.578125 30.171875 
Q 44.578125 39.703125 42.25 43.1875 
Q 39.9375 46.6875 33.984375 46.6875 
Q 27.734375 46.6875 24.453125 42.140625 
Q 21.1875 37.59375 21.1875 28.90625 
L 21.1875 5.171875 
L 29 5.171875 
L 29 0 
z
" id="DejaVuSerif-104"/>
     <path d="M 4 0 
L 4 4.203125 
L 36.53125 46.6875 
L 10.796875 46.6875 
L 10.796875 37.703125 
L 5.609375 37.703125 
L 5.609375 51.90625 
L 48.09375 51.90625 
L 48.09375 47.703125 
L 15.578125 5.171875 
L 43.796875 5.171875 
L 43.796875 14.59375 
L 49.03125 14.59375 
L 49.03125 0 
z
" id="DejaVuSerif-122"/>
    </defs>
    <g transform="translate(507.980406 19.8)scale(0.108 -0.108)">
     <use xlink:href="#DejaVuSerif-69"/>
     <use x="72.998047" xlink:href="#DejaVuSerif-102"/>
     <use x="110.009766" xlink:href="#DejaVuSerif-102"/>
     <use x="147.021484" xlink:href="#DejaVuSerif-101"/>
     <use x="206.201172" xlink:href="#DejaVuSerif-99"/>
     <use x="262.207031" xlink:href="#DejaVuSerif-116"/>
     <use x="302.392578" xlink:href="#DejaVuSerif-32"/>
     <use x="334.179688" xlink:href="#DejaVuSerif-111"/>
     <use x="394.384766" xlink:href="#DejaVuSerif-102"/>
     <use x="431.396484" xlink:href="#DejaVuSerif-32"/>
     <use x="463.183594" xlink:href="#DejaVuSerif-109"/>
     <use x="558.007812" xlink:href="#DejaVuSerif-101"/>
     <use x="617.1875" xlink:href="#DejaVuSerif-115"/>
     <use x="668.505859" xlink:href="#DejaVuSerif-104"/>
     <use x="732.910156" xlink:href="#DejaVuSerif-32"/>
     <use x="764.697266" xlink:href="#DejaVuSerif-115"/>
     <use x="816.015625" xlink:href="#DejaVuSerif-105"/>
     <use x="847.998047" xlink:href="#DejaVuSerif-122"/>
     <use x="900.683594" xlink:href="#DejaVuSerif-101"/>
    </g>
   </g>
   <g id="legend_3">
    <g id="line2d_55">
     <path d="M 566.663906 37.588594 
L 584.663906 37.588594 
" style="fill:none;stroke:#000000;stroke-linecap:square;stroke-width:0.9;"/>
    </g>
    <g id="line2d_56"/>
    <g id="text_49">
     <!-- N = 50 -->
     <defs>
      <path d="M 4.890625 0 
L 4.890625 5.171875 
L 14.703125 5.171875 
L 14.703125 67.671875 
L 4.890625 67.671875 
L 4.890625 72.90625 
L 23.578125 72.90625 
L 67.28125 15.375 
L 67.28125 67.671875 
L 57.515625 67.671875 
L 57.515625 72.90625 
L 83.109375 72.90625 
L 83.109375 67.671875 
L 73.296875 67.671875 
L 73.296875 -1.421875 
L 67.390625 -1.421875 
L 20.703125 60.015625 
L 20.703125 5.171875 
L 30.515625 5.171875 
L 30.515625 0 
z
" id="DejaVuSerif-78"/>
      <path d="M 10.59375 45.21875 
L 73.1875 45.21875 
L 73.1875 37.40625 
L 10.59375 37.40625 
z
M 10.59375 25.296875 
L 73.1875 25.296875 
L 73.1875 17.484375 
L 10.59375 17.484375 
z
" id="DejaVuSerif-61"/>
     </defs>
     <g transform="translate(591.863906 40.738594)scale(0.09 -0.09)">
      <use xlink:href="#DejaVuSerif-78"/>
      <use x="87.5" xlink:href="#DejaVuSerif-32"/>
      <use x="119.287109" xlink:href="#DejaVuSerif-61"/>
      <use x="203.076172" xlink:href="#DejaVuSerif-32"/>
      <use x="234.863281" xlink:href="#DejaVuSerif-53"/>
      <use x="298.486328" xlink:href="#DejaVuSerif-48"/>
     </g>
    </g>
    <g id="line2d_57">
     <path d="M 566.663906 50.798906 
L 584.663906 50.798906 
" style="fill:none;stroke:#0000ff;stroke-linecap:square;stroke-width:0.9;"/>
    </g>
    <g id="line2d_58"/>
    <g id="text_50">
     <!-- N = 100 -->
     <g transform="translate(591.863906 53.948906)scale(0.09 -0.09)">
      <use xlink:href="#DejaVuSerif-78"/>
      <use x="87.5" xlink:href="#DejaVuSerif-32"/>
      <use x="119.287109" xlink:href="#DejaVuSerif-61"/>
      <use x="203.076172" xlink:href="#DejaVuSerif-32"/>
      <use x="234.863281" xlink:href="#DejaVuSerif-49"/>
      <use x="298.486328" xlink:href="#DejaVuSerif-48"/>
      <use x="362.109375" xlink:href="#DejaVuSerif-48"/>
     </g>
    </g>
    <g id="line2d_59">
     <path d="M 566.663906 64.009219 
L 584.663906 64.009219 
" style="fill:none;stroke:#ff0000;stroke-linecap:square;stroke-width:0.9;"/>
    </g>
    <g id="line2d_60"/>
    <g id="text_51">
     <!-- N = 200 -->
     <g transform="translate(591.863906 67.159219)scale(0.09 -0.09)">
      <use xlink:href="#DejaVuSerif-78"/>
      <use x="87.5" xlink:href="#DejaVuSerif-32"/>
      <use x="119.287109" xlink:href="#DejaVuSerif-61"/>
      <use x="203.076172" xlink:href="#DejaVuSerif-32"/>
      <use x="234.863281" xlink:href="#DejaVuSerif-50"/>
      <use x="298.486328" xlink:href="#DejaVuSerif-48"/>
      <use x="362.109375" xlink:href="#DejaVuSerif-48"/>
     </g>
    </g>
   </g>
  </g>
 </g>
 <defs>
  <clipPath id="p804dac7e02">
   <rect height="186.76" width="156.932689" x="55.519811" y="25.8"/>
  </clipPath>
  <clipPath id="p3af1b677aa">
   <rect height="186.76" width="156.932689" x="268.433561" y="25.8"/>
  </clipPath>
  <clipPath id="pea600bd74a">
   <rect height="186.76" width="156.932689" x="481.347311" y="25.8"/>
  </clipPath>
 </defs>
</svg>
